<?xml version="1.0" encoding="UTF-8"?>
<svg version="1.1" xmlns="http://www.w3.org/2000/svg" width="1300" height="1300">
<path d="M0 0 C429 0 858 0 1300 0 C1300 429 1300 858 1300 1300 C871 1300 442 1300 0 1300 C0 871 0 442 0 0 Z " fill="#29162C" transform="translate(0,0)"/>
<path d="M0 0 C89.1 0 178.2 0 270 0 C270 3.3 270 6.6 270 10 C286.5 10 303 10 320 10 C320 6.7 320 3.4 320 0 C376.1 0 432.2 0 490 0 C490 3.3 490 6.6 490 10 C486.7 10 483.4 10 480 10 C480 13.3 480 16.6 480 20 C473.4 20 466.8 20 460 20 C460 23.3 460 26.6 460 30 C463.3 30 466.6 30 470 30 C470 33.3 470 36.6 470 40 C476.6 40 483.2 40 490 40 C490 43.3 490 46.6 490 50 C493.3 50 496.6 50 500 50 C500 53.3 500 56.6 500 60 C503.3 60 506.6 60 510 60 C510 76.5 510 93 510 110 C506.7 110 503.4 110 500 110 C500 116.6 500 123.2 500 130 C503.3 130 506.6 130 510 130 C510 146.5 510 163 510 180 C513.3 180 516.6 180 520 180 C520 186.6 520 193.2 520 200 C516.7 200 513.4 200 510 200 C510 206.6 510 213.2 510 220 C506.7 220 503.4 220 500 220 C500 226.6 500 233.2 500 240 C503.3 240 506.6 240 510 240 C510 259.8 510 279.6 510 300 C513.3 300 516.6 300 520 300 C520 306.6 520 313.2 520 320 C516.7 320 513.4 320 510 320 C510 326.6 510 333.2 510 340 C513.3 340 516.6 340 520 340 C520 346.6 520 353.2 520 360 C516.7 360 513.4 360 510 360 C510 376.5 510 393 510 410 C506.7 410 503.4 410 500 410 C500 416.6 500 423.2 500 430 C503.3 430 506.6 430 510 430 C510 439.9 510 449.8 510 460 C513.3 460 516.6 460 520 460 C520 466.6 520 473.2 520 480 C516.7 480 513.4 480 510 480 C510 486.6 510 493.2 510 500 C506.7 500 503.4 500 500 500 C500 506.6 500 513.2 500 520 C503.3 520 506.6 520 510 520 C510 533.2 510 546.4 510 560 C506.7 560 503.4 560 500 560 C500 563.3 500 566.6 500 570 C496.7 570 493.4 570 490 570 C490 573.3 490 576.6 490 580 C483.4 580 476.8 580 470 580 C470 583.3 470 586.6 470 590 C463.4 590 456.8 590 450 590 C450 586.7 450 583.4 450 580 C436.8 580 423.6 580 410 580 C410 583.3 410 586.6 410 590 C403.4 590 396.8 590 390 590 C390 586.7 390 583.4 390 580 C373.5 580 357 580 340 580 C340 576.7 340 573.4 340 570 C333.4 570 326.8 570 320 570 C320 573.3 320 576.6 320 580 C303.5 580 287 580 270 580 C270 583.3 270 586.6 270 590 C263.4 590 256.8 590 250 590 C250 586.7 250 583.4 250 580 C226.9 580 203.8 580 180 580 C180 576.7 180 573.4 180 570 C173.4 570 166.8 570 160 570 C160 573.3 160 576.6 160 580 C146.8 580 133.6 580 120 580 C120 583.3 120 586.6 120 590 C113.4 590 106.8 590 100 590 C100 586.7 100 583.4 100 580 C90.1 580 80.2 580 70 580 C70 576.7 70 573.4 70 570 C63.4 570 56.8 570 50 570 C50 573.3 50 576.6 50 580 C40.1 580 30.2 580 20 580 C20 583.3 20 586.6 20 590 C13.4 590 6.8 590 0 590 C0 586.7 0 583.4 0 580 C-6.6 580 -13.2 580 -20 580 C-20 583.3 -20 586.6 -20 590 C-26.6 590 -33.2 590 -40 590 C-40 583.4 -40 576.8 -40 570 C-43.3 570 -46.6 570 -50 570 C-50 494.1 -50 418.2 -50 340 C-46.7 340 -43.4 340 -40 340 C-40 313.6 -40 287.2 -40 260 C-43.3 260 -46.6 260 -50 260 C-50 223.7 -50 187.4 -50 150 C-46.7 150 -43.4 150 -40 150 C-40 130.2 -40 110.4 -40 90 C-43.3 90 -46.6 90 -50 90 C-50 83.4 -50 76.8 -50 70 C-46.7 70 -43.4 70 -40 70 C-40 53.5 -40 37 -40 20 C-36.7 20 -33.4 20 -30 20 C-30 16.7 -30 13.4 -30 10 C-20.1 10 -10.2 10 0 10 C0 6.7 0 3.4 0 0 Z " fill="#6F4E42" transform="translate(60,290)"/>
<path d="M0 0 C42.9 0 85.8 0 130 0 C130 3.3 130 6.6 130 10 C179.5 10 229 10 280 10 C280 6.7 280 3.4 280 0 C299.8 0 319.6 0 340 0 C340 3.3 340 6.6 340 10 C349.9 10 359.8 10 370 10 C370 13.3 370 16.6 370 20 C373.3 20 376.6 20 380 20 C380 23.3 380 26.6 380 30 C383.3 30 386.6 30 390 30 C390 36.6 390 43.2 390 50 C386.7 50 383.4 50 380 50 C380 66.5 380 83 380 100 C383.3 100 386.6 100 390 100 C390 119.8 390 139.6 390 160 C380.1 160 370.2 160 360 160 C360 166.6 360 173.2 360 180 C356.7 180 353.4 180 350 180 C350 183.3 350 186.6 350 190 C346.7 190 343.4 190 340 190 C340 193.3 340 196.6 340 200 C336.7 200 333.4 200 330 200 C330 203.3 330 206.6 330 210 C326.7 210 323.4 210 320 210 C320 213.3 320 216.6 320 220 C313.4 220 306.8 220 300 220 C300 223.3 300 226.6 300 230 C296.7 230 293.4 230 290 230 C290 233.3 290 236.6 290 240 C280.1 240 270.2 240 260 240 C260 243.3 260 246.6 260 250 C253.4 250 246.8 250 240 250 C240 253.3 240 256.6 240 260 C210.3 260 180.6 260 150 260 C150 263.3 150 266.6 150 270 C143.4 270 136.8 270 130 270 C130 276.6 130 283.2 130 290 C139.9 290 149.8 290 160 290 C160 286.7 160 283.4 160 280 C169.9 280 179.8 280 190 280 C190 283.3 190 286.6 190 290 C183.4 290 176.8 290 170 290 C170 296.6 170 303.2 170 310 C176.6 310 183.2 310 190 310 C190 313.3 190 316.6 190 320 C193.3 320 196.6 320 200 320 C200 323.3 200 326.6 200 330 C206.6 330 213.2 330 220 330 C220 333.3 220 336.6 220 340 C236.5 340 253 340 270 340 C270 343.3 270 346.6 270 350 C273.3 350 276.6 350 280 350 C280 353.3 280 356.6 280 360 C276.7 360 273.4 360 270 360 C270.33 361.65 270.66 363.3 271 365 C274.63 365 278.26 365 282 365 C282.33 364.01 282.66 363.02 283 362 C284.98 362 286.96 362 289 362 C289 363.65 289 365.3 289 367 C289.33 364.69 289.66 362.38 290 360 C293.3 360 296.6 360 300 360 C300 363.3 300 366.6 300 370 C296.7 370 293.4 370 290 370 C290 373.3 290 376.6 290 380 C293.3 380 296.6 380 300 380 C300 383.3 300 386.6 300 390 C303.3 390 306.6 390 310 390 C310 386.7 310 383.4 310 380 C313.3 380 316.6 380 320 380 C320 383.3 320 386.6 320 390 C323.3 390 326.6 390 330 390 C330 393.3 330 396.6 330 400 C333.3 400 336.6 400 340 400 C340 396.7 340 393.4 340 390 C343.3 390 346.6 390 350 390 C350 393.3 350 396.6 350 400 C359.9 400 369.8 400 380 400 C380 396.7 380 393.4 380 390 C383.3 390 386.6 390 390 390 C390 413.1 390 436.2 390 460 C380.1 460 370.2 460 360 460 C360 463.3 360 466.6 360 470 C363.3 470 366.6 470 370 470 C370 476.6 370 483.2 370 490 C366.7 490 363.4 490 360 490 C360 496.6 360 503.2 360 510 C356.7 510 353.4 510 350 510 C350 533.1 350 556.2 350 580 C353.3 580 356.6 580 360 580 C360 596.5 360 613 360 630 C356.7 630 353.4 630 350 630 C350 639.9 350 649.8 350 660 C353.3 660 356.6 660 360 660 C360 669.9 360 679.8 360 690 C346.8 690 333.6 690 320 690 C320 686.7 320 683.4 320 680 C310.1 680 300.2 680 290 680 C290 683.3 290 686.6 290 690 C276.8 690 263.6 690 250 690 C250 686.7 250 683.4 250 680 C240.1 680 230.2 680 220 680 C220 683.3 220 686.6 220 690 C213.4 690 206.8 690 200 690 C200 693.3 200 696.6 200 700 C193.4 700 186.8 700 180 700 C180 696.7 180 693.4 180 690 C173.4 690 166.8 690 160 690 C160 693.3 160 696.6 160 700 C150.1 700 140.2 700 130 700 C130 696.7 130 693.4 130 690 C123.4 690 116.8 690 110 690 C110 686.7 110 683.4 110 680 C86.9 680 63.8 680 40 680 C40 683.3 40 686.6 40 690 C30.1 690 20.2 690 10 690 C10 693.3 10 696.6 10 700 C3.4 700 -3.2 700 -10 700 C-10 696.7 -10 693.4 -10 690 C-16.6 690 -23.2 690 -30 690 C-30 686.7 -30 683.4 -30 680 C-33.3 680 -36.6 680 -40 680 C-40 673.4 -40 666.8 -40 660 C-43.3 660 -46.6 660 -50 660 C-50 603.9 -50 547.8 -50 490 C-46.7 490 -43.4 490 -40 490 C-40 473.5 -40 457 -40 440 C-43.3 440 -46.6 440 -50 440 C-50 413.6 -50 387.2 -50 360 C-46.7 360 -43.4 360 -40 360 C-40 330.3 -40 300.6 -40 270 C-43.3 270 -46.6 270 -50 270 C-50 246.9 -50 223.8 -50 200 C-46.7 200 -43.4 200 -40 200 C-40 183.5 -40 167 -40 150 C-43.3 150 -46.6 150 -50 150 C-50 113.7 -50 77.4 -50 40 C-46.7 40 -43.4 40 -40 40 C-40 33.4 -40 26.8 -40 20 C-36.7 20 -33.4 20 -30 20 C-30 16.7 -30 13.4 -30 10 C-20.1 10 -10.2 10 0 10 C0 6.7 0 3.4 0 0 Z " fill="#6F4E41" transform="translate(900,570)"/>
<path d="M0 0 C19.8 0 39.6 0 60 0 C60 3.3 60 6.6 60 10 C93 10 126 10 160 10 C160 6.7 160 3.4 160 0 C268.9 0 377.8 0 490 0 C490 3.3 490 6.6 490 10 C493.3 10 496.6 10 500 10 C500 13.3 500 16.6 500 20 C503.3 20 506.6 20 510 20 C510 29.9 510 39.8 510 50 C506.7 50 503.4 50 500 50 C500 56.6 500 63.2 500 70 C503.3 70 506.6 70 510 70 C510 86.5 510 103 510 120 C513.3 120 516.6 120 520 120 C520 123.3 520 126.6 520 130 C516.7 130 513.4 130 510 130 C510 136.6 510 143.2 510 150 C513.3 150 516.6 150 520 150 C520 156.6 520 163.2 520 170 C516.7 170 513.4 170 510 170 C510 183.2 510 196.4 510 210 C506.7 210 503.4 210 500 210 C500 216.6 500 223.2 500 230 C503.3 230 506.6 230 510 230 C510 236.6 510 243.2 510 250 C513.3 250 516.6 250 520 250 C520 256.6 520 263.2 520 270 C516.7 270 513.4 270 510 270 C510 276.6 510 283.2 510 290 C506.7 290 503.4 290 500 290 C500 296.6 500 303.2 500 310 C503.3 310 506.6 310 510 310 C510 319.9 510 329.8 510 340 C503.4 340 496.8 340 490 340 C490 343.3 490 346.6 490 350 C483.4 350 476.8 350 470 350 C470 353.3 470 356.6 470 360 C463.4 360 456.8 360 450 360 C450 356.7 450 353.4 450 350 C436.8 350 423.6 350 410 350 C410 353.3 410 356.6 410 360 C403.4 360 396.8 360 390 360 C390 356.7 390 353.4 390 350 C380.1 350 370.2 350 360 350 C360 346.7 360 343.4 360 340 C346.8 340 333.6 340 320 340 C320 343.3 320 346.6 320 350 C303.5 350 287 350 270 350 C270 353.3 270 356.6 270 360 C240.3 360 210.6 360 180 360 C180 356.7 180 353.4 180 350 C160.2 350 140.4 350 120 350 C120 353.3 120 356.6 120 360 C113.4 360 106.8 360 100 360 C100 356.7 100 353.4 100 350 C90.1 350 80.2 350 70 350 C70 346.7 70 343.4 70 340 C63.4 340 56.8 340 50 340 C50 343.3 50 346.6 50 350 C40.1 350 30.2 350 20 350 C20 353.3 20 356.6 20 360 C13.4 360 6.8 360 0 360 C0 356.7 0 353.4 0 350 C-6.6 350 -13.2 350 -20 350 C-20 353.3 -20 356.6 -20 360 C-26.6 360 -33.2 360 -40 360 C-40 353.4 -40 346.8 -40 340 C-43.3 340 -46.6 340 -50 340 C-50 277.3 -50 214.6 -50 150 C-46.7 150 -43.4 150 -40 150 C-40 133.5 -40 117 -40 100 C-43.3 100 -46.6 100 -50 100 C-50 83.5 -50 67 -50 50 C-46.7 50 -43.4 50 -40 50 C-40 40.1 -40 30.2 -40 20 C-36.7 20 -33.4 20 -30 20 C-30 16.7 -30 13.4 -30 10 C-20.1 10 -10.2 10 0 10 C0 6.7 0 3.4 0 0 Z " fill="#6F4E41" transform="translate(60,910)"/>
<path d="M0 0 C59.4 0 118.8 0 180 0 C180 3.3 180 6.6 180 10 C193.2 10 206.4 10 220 10 C220 6.7 220 3.4 220 0 C338.8 0 457.6 0 580 0 C580 3.3 580 6.6 580 10 C616.3 10 652.6 10 690 10 C690 6.7 690 3.4 690 0 C716.4 0 742.8 0 770 0 C770 3.3 770 6.6 770 10 C773.3 10 776.6 10 780 10 C780 13.3 780 16.6 780 20 C776.7 20 773.4 20 770 20 C770 26.6 770 33.2 770 40 C766.7 40 763.4 40 760 40 C760 46.6 760 53.2 760 60 C763.3 60 766.6 60 770 60 C770 76.5 770 93 770 110 C773.3 110 776.6 110 780 110 C780 116.6 780 123.2 780 130 C776.7 130 773.4 130 770 130 C770 136.6 770 143.2 770 150 C766.7 150 763.4 150 760 150 C760 156.6 760 163.2 760 170 C763.3 170 766.6 170 770 170 C770 193.1 770 216.2 770 240 C766.7 240 763.4 240 760 240 C760 236.7 760 233.4 760 230 C750.1 230 740.2 230 730 230 C730 233.3 730 236.6 730 240 C720.1 240 710.2 240 700 240 C700 243.3 700 246.6 700 250 C690.1 250 680.2 250 670 250 C670 246.7 670 243.4 670 240 C650.2 240 630.4 240 610 240 C610 243.3 610 246.6 610 250 C600.1 250 590.2 250 580 250 C580 246.7 580 243.4 580 240 C556.9 240 533.8 240 510 240 C510 236.7 510 233.4 510 230 C500.1 230 490.2 230 480 230 C480 233.3 480 236.6 480 240 C453.6 240 427.2 240 400 240 C400 243.3 400 246.6 400 250 C393.4 250 386.8 250 380 250 C380 246.7 380 243.4 380 240 C343.7 240 307.4 240 270 240 C270 236.7 270 233.4 270 230 C260.1 230 250.2 230 240 230 C240 233.3 240 236.6 240 240 C220.2 240 200.4 240 180 240 C180 243.3 180 246.6 180 250 C170.1 250 160.2 250 150 250 C150 246.7 150 243.4 150 240 C136.8 240 123.6 240 110 240 C110 236.7 110 233.4 110 230 C100.1 230 90.2 230 80 230 C80 233.3 80 236.6 80 240 C63.5 240 47 240 30 240 C30 243.3 30 246.6 30 250 C20.1 250 10.2 250 0 250 C0 246.7 0 243.4 0 240 C-6.6 240 -13.2 240 -20 240 C-20 236.7 -20 233.4 -20 230 C-23.3 230 -26.6 230 -30 230 C-30 223.4 -30 216.8 -30 210 C-33.3 210 -36.6 210 -40 210 C-40 173.7 -40 137.4 -40 100 C-36.7 100 -33.4 100 -30 100 C-30 90.1 -30 80.2 -30 70 C-33.3 70 -36.6 70 -40 70 C-40 60.1 -40 50.2 -40 40 C-36.7 40 -33.4 40 -30 40 C-30 33.4 -30 26.8 -30 20 C-26.7 20 -23.4 20 -20 20 C-20 16.7 -20 13.4 -20 10 C-13.4 10 -6.8 10 0 10 C0 6.7 0 3.4 0 0 Z " fill="#704E42" transform="translate(140,10)"/>
<path d="M0 0 C13.2 0 26.4 0 40 0 C40 3.3 40 6.6 40 10 C56.5 10 73 10 90 10 C90 6.7 90 3.4 90 0 C129.6 0 169.2 0 210 0 C210 3.3 210 6.6 210 10 C223.2 10 236.4 10 250 10 C250 6.7 250 3.4 250 0 C269.8 0 289.6 0 310 0 C310 3.3 310 6.6 310 10 C326.5 10 343 10 360 10 C360 6.7 360 3.4 360 0 C399.6 0 439.2 0 480 0 C480 3.3 480 6.6 480 10 C503.1 10 526.2 10 550 10 C550 6.7 550 3.4 550 0 C573.1 0 596.2 0 620 0 C620 9.9 620 19.8 620 30 C616.7 30 613.4 30 610 30 C610 53.1 610 76.2 610 100 C613.3 100 616.6 100 620 100 C620 116.5 620 133 620 150 C616.7 150 613.4 150 610 150 C610 159.9 610 169.8 610 180 C613.3 180 616.6 180 620 180 C620 193.2 620 206.4 620 220 C616.7 220 613.4 220 610 220 C610 223.3 610 226.6 610 230 C603.4 230 596.8 230 590 230 C590 233.3 590 236.6 590 240 C580.1 240 570.2 240 560 240 C560 243.3 560 246.6 560 250 C546.8 250 533.6 250 520 250 C520 246.7 520 243.4 520 240 C506.8 240 493.6 240 480 240 C480 236.7 480 233.4 480 230 C453.6 230 427.2 230 400 230 C400 233.3 400 236.6 400 240 C376.9 240 353.8 240 330 240 C330 236.7 330 233.4 330 230 C306.9 230 283.8 230 260 230 C260 233.3 260 236.6 260 240 C223.7 240 187.4 240 150 240 C150 243.3 150 246.6 150 250 C120.3 250 90.6 250 60 250 C60 246.7 60 243.4 60 240 C46.8 240 33.6 240 20 240 C20 236.7 20 233.4 20 230 C13.4 230 6.8 230 0 230 C0 233.3 0 236.6 0 240 C-6.6 240 -13.2 240 -20 240 C-20 233.4 -20 226.8 -20 220 C-23.3 220 -26.6 220 -30 220 C-30 154 -30 88 -30 20 C-26.7 20 -23.4 20 -20 20 C-20 16.7 -20 13.4 -20 10 C-13.4 10 -6.8 10 0 10 C0 6.7 0 3.4 0 0 Z " fill="#6F4E41" transform="translate(640,290)"/>
<path d="M0 0 C6.6 0 13.2 0 20 0 C20 3.3 20 6.6 20 10 C33.2 10 46.4 10 60 10 C60 6.7 60 3.4 60 0 C66.6 0 73.2 0 80 0 C80 9.9 80 19.8 80 30 C83.3 30 86.6 30 90 30 C90 39.9 90 49.8 90 60 C86.7 60 83.4 60 80 60 C80 76.5 80 93 80 110 C83.3 110 86.6 110 90 110 C90 149.6 90 189.2 90 230 C86.7 230 83.4 230 80 230 C80 246.5 80 263 80 280 C83.3 280 86.6 280 90 280 C90 332.8 90 385.6 90 440 C86.7 440 83.4 440 80 440 C80 443.3 80 446.6 80 450 C76.7 450 73.4 450 70 450 C70 453.3 70 456.6 70 460 C63.4 460 56.8 460 50 460 C50 463.3 50 466.6 50 470 C-6.1 470 -62.2 470 -120 470 C-120 466.7 -120 463.4 -120 460 C-116.7 460 -113.4 460 -110 460 C-110 456.7 -110 453.4 -110 450 C-106.7 450 -103.4 450 -100 450 C-100 446.7 -100 443.4 -100 440 C-96.7 440 -93.4 440 -90 440 C-90 436.7 -90 433.4 -90 430 C-93.3 430 -96.6 430 -100 430 C-100 416.8 -100 403.6 -100 390 C-103.3 390 -106.6 390 -110 390 C-110 363.6 -110 337.2 -110 310 C-106.7 310 -103.4 310 -100 310 C-100 280.3 -100 250.6 -100 220 C-103.3 220 -106.6 220 -110 220 C-110 206.8 -110 193.6 -110 180 C-113.3 180 -116.6 180 -120 180 C-120 170.1 -120 160.2 -120 150 C-116.7 150 -113.4 150 -110 150 C-110 136.8 -110 123.6 -110 110 C-113.3 110 -116.6 110 -120 110 C-120 103.4 -120 96.8 -120 90 C-116.7 90 -113.4 90 -110 90 C-110 76.8 -110 63.6 -110 50 C-106.7 50 -103.4 50 -100 50 C-100 40.1 -100 30.2 -100 20 C-96.7 20 -93.4 20 -90 20 C-90 16.7 -90 13.4 -90 10 C-83.4 10 -76.8 10 -70 10 C-70 13.3 -70 16.6 -70 20 C-60.1 20 -50.2 20 -40 20 C-40 16.7 -40 13.4 -40 10 C-26.8 10 -13.6 10 0 10 C0 6.7 0 3.4 0 0 Z " fill="#6F4E42" transform="translate(750,590)"/>
<path d="M0 0 C59.4 0 118.8 0 180 0 C180 3.3 180 6.6 180 10 C199.8 10 219.6 10 240 10 C240 6.7 240 3.4 240 0 C249.9 0 259.8 0 270 0 C270 6.6 270 13.2 270 20 C273.3 20 276.6 20 280 20 C280 33.2 280 46.4 280 60 C276.7 60 273.4 60 270 60 C270 76.5 270 93 270 110 C273.3 110 276.6 110 280 110 C280 119.9 280 129.8 280 140 C283.3 140 286.6 140 290 140 C290 163.1 290 186.2 290 210 C286.7 210 283.4 210 280 210 C280 219.9 280 229.8 280 240 C266.8 240 253.6 240 240 240 C240 243.3 240 246.6 240 250 C223.5 250 207 250 190 250 C190 246.7 190 243.4 190 240 C180.1 240 170.2 240 160 240 C160 236.7 160 233.4 160 230 C136.9 230 113.8 230 90 230 C90 233.3 90 236.6 90 240 C73.5 240 57 240 40 240 C40 236.7 40 233.4 40 230 C26.8 230 13.6 230 0 230 C0 233.3 0 236.6 0 240 C-3.3 240 -6.6 240 -10 240 C-10 236.7 -10 233.4 -10 230 C-13.3 230 -16.6 230 -20 230 C-20 203.6 -20 177.2 -20 150 C-23.3 150 -26.6 150 -30 150 C-30 107.1 -30 64.2 -30 20 C-26.7 20 -23.4 20 -20 20 C-20 16.7 -20 13.4 -20 10 C-13.4 10 -6.8 10 0 10 C0 6.7 0 3.4 0 0 Z " fill="#6F4E41" transform="translate(980,10)"/>
<path d="M0 0 C59.4 0 118.8 0 180 0 C180 6.6 180 13.2 180 20 C176.7 20 173.4 20 170 20 C170 29.9 170 39.8 170 50 C173.3 50 176.6 50 180 50 C180 69.8 180 89.6 180 110 C176.7 110 173.4 110 170 110 C170 119.9 170 129.8 170 140 C173.3 140 176.6 140 180 140 C180 153.2 180 166.4 180 180 C176.7 180 173.4 180 170 180 C170 183.3 170 186.6 170 190 C166.7 190 163.4 190 160 190 C160 193.3 160 196.6 160 200 C150.1 200 140.2 200 130 200 C130 196.7 130 193.4 130 190 C126.7 190 123.4 190 120 190 C120 186.7 120 183.4 120 180 C113.4 180 106.8 180 100 180 C100 183.3 100 186.6 100 190 C93.4 190 86.8 190 80 190 C80 193.3 80 196.6 80 200 C60.2 200 40.4 200 20 200 C20 196.7 20 193.4 20 190 C13.4 190 6.8 190 0 190 C0 193.3 0 196.6 0 200 C-3.3 200 -6.6 200 -10 200 C-10 203.3 -10 206.6 -10 210 C-13.3 210 -16.6 210 -20 210 C-20 206.7 -20 203.4 -20 200 C-23.3 200 -26.6 200 -30 200 C-30 193.4 -30 186.8 -30 180 C-26.7 180 -23.4 180 -20 180 C-20 163.5 -20 147 -20 130 C-23.3 130 -26.6 130 -30 130 C-30 113.5 -30 97 -30 80 C-26.7 80 -23.4 80 -20 80 C-20 73.4 -20 66.8 -20 60 C-23.3 60 -26.6 60 -30 60 C-30 53.4 -30 46.8 -30 40 C-26.7 40 -23.4 40 -20 40 C-20 33.4 -20 26.8 -20 20 C-16.7 20 -13.4 20 -10 20 C-10 16.7 -10 13.4 -10 10 C-6.7 10 -3.4 10 0 10 C0 6.7 0 3.4 0 0 Z " fill="#6F4E41" transform="translate(640,1070)"/>
<path d="M0 0 C3.3 0 6.6 0 10 0 C10 3.3 10 6.6 10 10 C16.6 10 23.2 10 30 10 C30 13.3 30 16.6 30 20 C33.3 20 36.6 20 40 20 C40 36.5 40 53 40 70 C43.3 70 46.6 70 50 70 C50 119.5 50 169 50 220 C46.7 220 43.4 220 40 220 C40 243.1 40 266.2 40 290 C43.3 290 46.6 290 50 290 C50 375.8 50 461.6 50 550 C46.7 550 43.4 550 40 550 C40 563.2 40 576.4 40 590 C36.7 590 33.4 590 30 590 C30 593.3 30 596.6 30 600 C26.7 600 23.4 600 20 600 C20 603.3 20 606.6 20 610 C-22.9 610 -65.8 610 -110 610 C-110 606.7 -110 603.4 -110 600 C-126.5 600 -143 600 -160 600 C-160 603.3 -160 606.6 -160 610 C-199.6 610 -239.2 610 -280 610 C-280 606.7 -280 603.4 -280 600 C-303.1 600 -326.2 600 -350 600 C-350 603.3 -350 606.6 -350 610 C-402.8 610 -455.6 610 -510 610 C-510 606.7 -510 603.4 -510 600 C-513.3 600 -516.6 600 -520 600 C-520 596.7 -520 593.4 -520 590 C-516.7 590 -513.4 590 -510 590 C-510 586.7 -510 583.4 -510 580 C-503.4 580 -496.8 580 -490 580 C-490 583.3 -490 586.6 -490 590 C-483.4 590 -476.8 590 -470 590 C-470 586.7 -470 583.4 -470 580 C-460.1 580 -450.2 580 -440 580 C-440 576.7 -440 573.4 -440 570 C-433.4 570 -426.8 570 -420 570 C-420 573.3 -420 576.6 -420 580 C-410.1 580 -400.2 580 -390 580 C-390 583.3 -390 586.6 -390 590 C-383.4 590 -376.8 590 -370 590 C-370 586.7 -370 583.4 -370 580 C-356.8 580 -343.6 580 -330 580 C-330 576.7 -330 573.4 -330 570 C-323.4 570 -316.8 570 -310 570 C-310 573.3 -310 576.6 -310 580 C-286.9 580 -263.8 580 -240 580 C-240 583.3 -240 586.6 -240 590 C-233.4 590 -226.8 590 -220 590 C-220 586.7 -220 583.4 -220 580 C-203.5 580 -187 580 -170 580 C-170 576.7 -170 573.4 -170 570 C-163.4 570 -156.8 570 -150 570 C-150 573.3 -150 576.6 -150 580 C-133.5 580 -117 580 -100 580 C-100 583.3 -100 586.6 -100 590 C-93.4 590 -86.8 590 -80 590 C-80 586.7 -80 583.4 -80 580 C-66.8 580 -53.6 580 -40 580 C-40 583.3 -40 586.6 -40 590 C-33.4 590 -26.8 590 -20 590 C-20 586.7 -20 583.4 -20 580 C-13.4 580 -6.8 580 0 580 C0 576.7 0 573.4 0 570 C3.3 570 6.6 570 10 570 C10 566.7 10 563.4 10 560 C13.3 560 16.6 560 20 560 C20 546.8 20 533.6 20 520 C16.7 520 13.4 520 10 520 C10 513.4 10 506.8 10 500 C13.3 500 16.6 500 20 500 C20 493.4 20 486.8 20 480 C23.3 480 26.6 480 30 480 C30 473.4 30 466.8 30 460 C26.7 460 23.4 460 20 460 C20 450.1 20 440.2 20 430 C16.7 430 13.4 430 10 430 C10 423.4 10 416.8 10 410 C13.3 410 16.6 410 20 410 C20 393.5 20 377 20 360 C23.3 360 26.6 360 30 360 C30 353.4 30 346.8 30 340 C26.7 340 23.4 340 20 340 C20 333.4 20 326.8 20 320 C23.3 320 26.6 320 30 320 C30 313.4 30 306.8 30 300 C26.7 300 23.4 300 20 300 C20 280.2 20 260.4 20 240 C16.7 240 13.4 240 10 240 C10 233.4 10 226.8 10 220 C13.3 220 16.6 220 20 220 C20 213.4 20 206.8 20 200 C23.3 200 26.6 200 30 200 C30 193.4 30 186.8 30 180 C26.7 180 23.4 180 20 180 C20 163.5 20 147 20 130 C16.7 130 13.4 130 10 130 C10 123.4 10 116.8 10 110 C13.3 110 16.6 110 20 110 C20 93.5 20 77 20 60 C16.7 60 13.4 60 10 60 C10 56.7 10 53.4 10 50 C6.7 50 3.4 50 0 50 C0 46.7 0 43.4 0 40 C-6.6 40 -13.2 40 -20 40 C-20 36.7 -20 33.4 -20 30 C-23.3 30 -26.6 30 -30 30 C-30 26.7 -30 23.4 -30 20 C-23.4 20 -16.8 20 -10 20 C-10 16.7 -10 13.4 -10 10 C-6.7 10 -3.4 10 0 10 C0 6.7 0 3.4 0 0 Z " fill="#502C3A" transform="translate(550,290)"/>
<path d="M0 0 C89.1 0 178.2 0 270 0 C270 3.3 270 6.6 270 10 C286.5 10 303 10 320 10 C320 6.7 320 3.4 320 0 C376.1 0 432.2 0 490 0 C490 3.3 490 6.6 490 10 C486.7 10 483.4 10 480 10 C480 13.3 480 16.6 480 20 C473.4 20 466.8 20 460 20 C460 23.3 460 26.6 460 30 C443.5 30 427 30 410 30 C410 26.7 410 23.4 410 20 C400.1 20 390.2 20 380 20 C380 23.3 380 26.6 380 30 C373.4 30 366.8 30 360 30 C360 33.3 360 36.6 360 40 C353.4 40 346.8 40 340 40 C340 36.7 340 33.4 340 30 C330.1 30 320.2 30 310 30 C310 33.3 310 36.6 310 40 C293.5 40 277 40 260 40 C260 36.7 260 33.4 260 30 C253.4 30 246.8 30 240 30 C240 26.7 240 23.4 240 20 C220.2 20 200.4 20 180 20 C180 23.3 180 26.6 180 30 C176.7 30 173.4 30 170 30 C170 33.3 170 36.6 170 40 C156.8 40 143.6 40 130 40 C130 36.7 130 33.4 130 30 C123.4 30 116.8 30 110 30 C110 33.3 110 36.6 110 40 C103.4 40 96.8 40 90 40 C90 36.7 90 33.4 90 30 C83.4 30 76.8 30 70 30 C70 33.3 70 36.6 70 40 C63.4 40 56.8 40 50 40 C50 36.7 50 33.4 50 30 C46.7 30 43.4 30 40 30 C40 26.7 40 23.4 40 20 C30.1 20 20.2 20 10 20 C10 23.3 10 26.6 10 30 C0.1 30 -9.8 30 -20 30 C-20 39.9 -20 49.8 -20 60 C-16.7 60 -13.4 60 -10 60 C-10 66.6 -10 73.2 -10 80 C-13.3 80 -16.6 80 -20 80 C-20 89.9 -20 99.8 -20 110 C-16.7 110 -13.4 110 -10 110 C-10 119.9 -10 129.8 -10 140 C-13.3 140 -16.6 140 -20 140 C-20 149.9 -20 159.8 -20 170 C-23.3 170 -26.6 170 -30 170 C-30 183.2 -30 196.4 -30 210 C-26.7 210 -23.4 210 -20 210 C-20 223.2 -20 236.4 -20 250 C-23.3 250 -26.6 250 -30 250 C-30 259.9 -30 269.8 -30 280 C-26.7 280 -23.4 280 -20 280 C-20 283.3 -20 286.6 -20 290 C-16.7 290 -13.4 290 -10 290 C-10 309.8 -10 329.6 -10 350 C-13.3 350 -16.6 350 -20 350 C-20 359.9 -20 369.8 -20 380 C-16.7 380 -13.4 380 -10 380 C-10 389.9 -10 399.8 -10 410 C-13.3 410 -16.6 410 -20 410 C-20 413.3 -20 416.6 -20 420 C-23.3 420 -26.6 420 -30 420 C-30 429.9 -30 439.8 -30 450 C-26.7 450 -23.4 450 -20 450 C-20 456.6 -20 463.2 -20 470 C-23.3 470 -26.6 470 -30 470 C-30 476.6 -30 483.2 -30 490 C-26.7 490 -23.4 490 -20 490 C-20 499.9 -20 509.8 -20 520 C-16.7 520 -13.4 520 -10 520 C-10 529.9 -10 539.8 -10 550 C-13.3 550 -16.6 550 -20 550 C-20 563.2 -20 576.4 -20 590 C-26.6 590 -33.2 590 -40 590 C-40 583.4 -40 576.8 -40 570 C-43.3 570 -46.6 570 -50 570 C-50 494.1 -50 418.2 -50 340 C-46.7 340 -43.4 340 -40 340 C-40 313.6 -40 287.2 -40 260 C-43.3 260 -46.6 260 -50 260 C-50 223.7 -50 187.4 -50 150 C-46.7 150 -43.4 150 -40 150 C-40 130.2 -40 110.4 -40 90 C-43.3 90 -46.6 90 -50 90 C-50 83.4 -50 76.8 -50 70 C-46.7 70 -43.4 70 -40 70 C-40 53.5 -40 37 -40 20 C-36.7 20 -33.4 20 -30 20 C-30 16.7 -30 13.4 -30 10 C-20.1 10 -10.2 10 0 10 C0 6.7 0 3.4 0 0 Z " fill="#A48860" transform="translate(60,290)"/>
<path d="M0 0 C59.4 0 118.8 0 180 0 C180 3.3 180 6.6 180 10 C193.2 10 206.4 10 220 10 C220 6.7 220 3.4 220 0 C338.8 0 457.6 0 580 0 C580 3.3 580 6.6 580 10 C616.3 10 652.6 10 690 10 C690 6.7 690 3.4 690 0 C716.4 0 742.8 0 770 0 C770 3.3 770 6.6 770 10 C773.3 10 776.6 10 780 10 C780 13.3 780 16.6 780 20 C776.7 20 773.4 20 770 20 C770 23.3 770 26.6 770 30 C750.2 30 730.4 30 710 30 C710 33.3 710 36.6 710 40 C653.9 40 597.8 40 540 40 C540 36.7 540 33.4 540 30 C507 30 474 30 440 30 C440 26.7 440 23.4 440 20 C420.2 20 400.4 20 380 20 C380 23.3 380 26.6 380 30 C360.2 30 340.4 30 320 30 C320 26.7 320 23.4 320 20 C310.1 20 300.2 20 290 20 C290 23.3 290 26.6 290 30 C276.8 30 263.6 30 250 30 C250 33.3 250 36.6 250 40 C220.3 40 190.6 40 160 40 C160 36.7 160 33.4 160 30 C143.5 30 127 30 110 30 C110 26.7 110 23.4 110 20 C83.6 20 57.2 20 30 20 C30 23.3 30 26.6 30 30 C23.4 30 16.8 30 10 30 C10 33.3 10 36.6 10 40 C6.7 40 3.4 40 0 40 C0 46.6 0 53.2 0 60 C-3.3 60 -6.6 60 -10 60 C-10 119.4 -10 178.8 -10 240 C-13.3 240 -16.6 240 -20 240 C-20 236.7 -20 233.4 -20 230 C-23.3 230 -26.6 230 -30 230 C-30 223.4 -30 216.8 -30 210 C-33.3 210 -36.6 210 -40 210 C-40 173.7 -40 137.4 -40 100 C-36.7 100 -33.4 100 -30 100 C-30 90.1 -30 80.2 -30 70 C-33.3 70 -36.6 70 -40 70 C-40 60.1 -40 50.2 -40 40 C-36.7 40 -33.4 40 -30 40 C-30 33.4 -30 26.8 -30 20 C-26.7 20 -23.4 20 -20 20 C-20 16.7 -20 13.4 -20 10 C-13.4 10 -6.8 10 0 10 C0 6.7 0 3.4 0 0 Z " fill="#A48860" transform="translate(140,10)"/>
<path d="M0 0 C6.6 0 13.2 0 20 0 C20 6.6 20 13.2 20 20 C23.3 20 26.6 20 30 20 C30 89.3 30 158.6 30 230 C26.7 230 23.4 230 20 230 C20 233.3 20 236.6 20 240 C10.1 240 0.2 240 -10 240 C-10 243.3 -10 246.6 -10 250 C-72.7 250 -135.4 250 -200 250 C-200 246.7 -200 243.4 -200 240 C-226.4 240 -252.8 240 -280 240 C-280 243.3 -280 246.6 -280 250 C-339.4 250 -398.8 250 -460 250 C-460 246.7 -460 243.4 -460 240 C-493 240 -526 240 -560 240 C-560 243.3 -560 246.6 -560 250 C-589.7 250 -619.4 250 -650 250 C-650 246.7 -650 243.4 -650 240 C-666.5 240 -683 240 -700 240 C-700 243.3 -700 246.6 -700 250 C-729.7 250 -759.4 250 -790 250 C-790 246.7 -790 243.4 -790 240 C-793.3 240 -796.6 240 -800 240 C-800 236.7 -800 233.4 -800 230 C-803.3 230 -806.6 230 -810 230 C-810 216.8 -810 203.6 -810 190 C-806.7 190 -803.4 190 -800 190 C-800 196.6 -800 203.2 -800 210 C-796.7 210 -793.4 210 -790 210 C-790 213.3 -790 216.6 -790 220 C-783.4 220 -776.8 220 -770 220 C-770 223.3 -770 226.6 -770 230 C-760.1 230 -750.2 230 -740 230 C-740 226.7 -740 223.4 -740 220 C-723.5 220 -707 220 -690 220 C-690 216.7 -690 213.4 -690 210 C-680.1 210 -670.2 210 -660 210 C-660 213.3 -660 216.6 -660 220 C-646.8 220 -633.6 220 -620 220 C-620 223.3 -620 226.6 -620 230 C-610.1 230 -600.2 230 -590 230 C-590 226.7 -590 223.4 -590 220 C-570.2 220 -550.4 220 -530 220 C-530 216.7 -530 213.4 -530 210 C-520.1 210 -510.2 210 -500 210 C-500 213.3 -500 216.6 -500 220 C-463.7 220 -427.4 220 -390 220 C-390 223.3 -390 226.6 -390 230 C-383.4 230 -376.8 230 -370 230 C-370 226.7 -370 223.4 -370 220 C-343.6 220 -317.2 220 -290 220 C-290 216.7 -290 213.4 -290 210 C-280.1 210 -270.2 210 -260 210 C-260 213.3 -260 216.6 -260 220 C-236.9 220 -213.8 220 -190 220 C-190 223.3 -190 226.6 -190 230 C-180.1 230 -170.2 230 -160 230 C-160 226.7 -160 223.4 -160 220 C-140.2 220 -120.4 220 -100 220 C-100 223.3 -100 226.6 -100 230 C-90.1 230 -80.2 230 -70 230 C-70 226.7 -70 223.4 -70 220 C-60.1 220 -50.2 220 -40 220 C-40 216.7 -40 213.4 -40 210 C-30.1 210 -20.2 210 -10 210 C-10 213.3 -10 216.6 -10 220 C-6.7 220 -3.4 220 0 220 C0 196.9 0 173.8 0 150 C-3.3 150 -6.6 150 -10 150 C-10 143.4 -10 136.8 -10 130 C-6.7 130 -3.4 130 0 130 C0 123.4 0 116.8 0 110 C3.3 110 6.6 110 10 110 C10 103.4 10 96.8 10 90 C6.7 90 3.4 90 0 90 C0 73.5 0 57 0 40 C-3.3 40 -6.6 40 -10 40 C-10 33.4 -10 26.8 -10 20 C-6.7 20 -3.4 20 0 20 C0 13.4 0 6.8 0 0 Z " fill="#502C3A" transform="translate(910,30)"/>
<path d="M0 0 C42.9 0 85.8 0 130 0 C130 3.3 130 6.6 130 10 C179.5 10 229 10 280 10 C280 6.7 280 3.4 280 0 C299.8 0 319.6 0 340 0 C340 3.3 340 6.6 340 10 C349.9 10 359.8 10 370 10 C370 13.3 370 16.6 370 20 C366.7 20 363.4 20 360 20 C360 23.3 360 26.6 360 30 C353.4 30 346.8 30 340 30 C340 26.7 340 23.4 340 20 C333.4 20 326.8 20 320 20 C320 23.3 320 26.6 320 30 C313.4 30 306.8 30 300 30 C300 33.3 300 36.6 300 40 C280.2 40 260.4 40 240 40 C240 36.7 240 33.4 240 30 C233.4 30 226.8 30 220 30 C220 33.3 220 36.6 220 40 C200.2 40 180.4 40 160 40 C160 36.7 160 33.4 160 30 C143.5 30 127 30 110 30 C110 26.7 110 23.4 110 20 C86.9 20 63.8 20 40 20 C40 23.3 40 26.6 40 30 C33.4 30 26.8 30 20 30 C20 33.3 20 36.6 20 40 C13.4 40 6.8 40 0 40 C0 43.3 0 46.6 0 50 C-3.3 50 -6.6 50 -10 50 C-10 59.9 -10 69.8 -10 80 C-13.3 80 -16.6 80 -20 80 C-20 86.6 -20 93.2 -20 100 C-23.3 100 -26.6 100 -30 100 C-30 109.9 -30 119.8 -30 130 C-26.7 130 -23.4 130 -20 130 C-20 136.6 -20 143.2 -20 150 C-16.7 150 -13.4 150 -10 150 C-10 159.9 -10 169.8 -10 180 C-13.3 180 -16.6 180 -20 180 C-20 196.5 -20 213 -20 230 C-23.3 230 -26.6 230 -30 230 C-30 236.6 -30 243.2 -30 250 C-26.7 250 -23.4 250 -20 250 C-20 256.6 -20 263.2 -20 270 C-16.7 270 -13.4 270 -10 270 C-10 279.9 -10 289.8 -10 300 C-13.3 300 -16.6 300 -20 300 C-20 323.1 -20 346.2 -20 370 C-23.3 370 -26.6 370 -30 370 C-30 383.2 -30 396.4 -30 410 C-26.7 410 -23.4 410 -20 410 C-20 419.9 -20 429.8 -20 440 C-16.7 440 -13.4 440 -10 440 C-10 446.6 -10 453.2 -10 460 C-13.3 460 -16.6 460 -20 460 C-20 469.9 -20 479.8 -20 490 C-23.3 490 -26.6 490 -30 490 C-30 516.4 -30 542.8 -30 570 C-26.7 570 -23.4 570 -20 570 C-20 586.5 -20 603 -20 620 C-23.3 620 -26.6 620 -30 620 C-30 639.8 -30 659.6 -30 680 C-33.3 680 -36.6 680 -40 680 C-40 673.4 -40 666.8 -40 660 C-43.3 660 -46.6 660 -50 660 C-50 603.9 -50 547.8 -50 490 C-46.7 490 -43.4 490 -40 490 C-40 473.5 -40 457 -40 440 C-43.3 440 -46.6 440 -50 440 C-50 413.6 -50 387.2 -50 360 C-46.7 360 -43.4 360 -40 360 C-40 330.3 -40 300.6 -40 270 C-43.3 270 -46.6 270 -50 270 C-50 246.9 -50 223.8 -50 200 C-46.7 200 -43.4 200 -40 200 C-40 183.5 -40 167 -40 150 C-43.3 150 -46.6 150 -50 150 C-50 113.7 -50 77.4 -50 40 C-46.7 40 -43.4 40 -40 40 C-40 33.4 -40 26.8 -40 20 C-36.7 20 -33.4 20 -30 20 C-30 16.7 -30 13.4 -30 10 C-20.1 10 -10.2 10 0 10 C0 6.7 0 3.4 0 0 Z " fill="#A48860" transform="translate(900,570)"/>
<path d="M0 0 C6.6 0 13.2 0 20 0 C20 3.3 20 6.6 20 10 C23.3 10 26.6 10 30 10 C30 16.6 30 23.2 30 30 C26.7 30 23.4 30 20 30 C20 46.5 20 63 20 80 C23.3 80 26.6 80 30 80 C30 132.8 30 185.6 30 240 C26.7 240 23.4 240 20 240 C20 243.3 20 246.6 20 250 C13.4 250 6.8 250 0 250 C0 253.3 0 256.6 0 260 C-46.2 260 -92.4 260 -140 260 C-140 256.7 -140 253.4 -140 250 C-163.1 250 -186.2 250 -210 250 C-210 253.3 -210 256.6 -210 260 C-236.4 260 -262.8 260 -290 260 C-290 256.7 -290 253.4 -290 250 C-316.4 250 -342.8 250 -370 250 C-370 253.3 -370 256.6 -370 260 C-445.9 260 -521.8 260 -600 260 C-600 256.7 -600 253.4 -600 250 C-609.9 250 -619.8 250 -630 250 C-630 246.7 -630 243.4 -630 240 C-633.3 240 -636.6 240 -640 240 C-640 236.7 -640 233.4 -640 230 C-633.4 230 -626.8 230 -620 230 C-620 226.7 -620 223.4 -620 220 C-613.4 220 -606.8 220 -600 220 C-600 223.3 -600 226.6 -600 230 C-586.8 230 -573.6 230 -560 230 C-560 233.3 -560 236.6 -560 240 C-530.3 240 -500.6 240 -470 240 C-470 236.7 -470 233.4 -470 230 C-433.7 230 -397.4 230 -360 230 C-360 226.7 -360 223.4 -360 220 C-336.9 220 -313.8 220 -290 220 C-290 223.3 -290 226.6 -290 230 C-266.9 230 -243.8 230 -220 230 C-220 226.7 -220 223.4 -220 220 C-193.6 220 -167.2 220 -140 220 C-140 223.3 -140 226.6 -140 230 C-126.8 230 -113.6 230 -100 230 C-100 233.3 -100 236.6 -100 240 C-86.8 240 -73.6 240 -60 240 C-60 236.7 -60 233.4 -60 230 C-50.1 230 -40.2 230 -30 230 C-30 226.7 -30 223.4 -30 220 C-23.4 220 -16.8 220 -10 220 C-10 216.7 -10 213.4 -10 210 C-6.7 210 -3.4 210 0 210 C0 196.8 0 183.6 0 170 C-3.3 170 -6.6 170 -10 170 C-10 160.1 -10 150.2 -10 140 C-6.7 140 -3.4 140 0 140 C0 123.5 0 107 0 90 C-3.3 90 -6.6 90 -10 90 C-10 66.9 -10 43.8 -10 20 C-6.7 20 -3.4 20 0 20 C0 13.4 0 6.8 0 0 Z " fill="#502C3A" transform="translate(1260,300)"/>
<path d="M0 0 C19.8 0 39.6 0 60 0 C60 3.3 60 6.6 60 10 C93 10 126 10 160 10 C160 6.7 160 3.4 160 0 C268.9 0 377.8 0 490 0 C490 3.3 490 6.6 490 10 C493.3 10 496.6 10 500 10 C500 13.3 500 16.6 500 20 C503.3 20 506.6 20 510 20 C510 23.3 510 26.6 510 30 C503.4 30 496.8 30 490 30 C490 33.3 490 36.6 490 40 C483.4 40 476.8 40 470 40 C470 36.7 470 33.4 470 30 C450.2 30 430.4 30 410 30 C410 26.7 410 23.4 410 20 C400.1 20 390.2 20 380 20 C380 23.3 380 26.6 380 30 C373.4 30 366.8 30 360 30 C360 33.3 360 36.6 360 40 C353.4 40 346.8 40 340 40 C340 36.7 340 33.4 340 30 C330.1 30 320.2 30 310 30 C310 33.3 310 36.6 310 40 C293.5 40 277 40 260 40 C260 36.7 260 33.4 260 30 C230.3 30 200.6 30 170 30 C170 33.3 170 36.6 170 40 C130.4 40 90.8 40 50 40 C50 36.7 50 33.4 50 30 C46.7 30 43.4 30 40 30 C40 26.7 40 23.4 40 20 C30.1 20 20.2 20 10 20 C10 23.3 10 26.6 10 30 C0.1 30 -9.8 30 -20 30 C-20 39.9 -20 49.8 -20 60 C-16.7 60 -13.4 60 -10 60 C-10 66.6 -10 73.2 -10 80 C-13.3 80 -16.6 80 -20 80 C-20 89.9 -20 99.8 -20 110 C-16.7 110 -13.4 110 -10 110 C-10 119.9 -10 129.8 -10 140 C-13.3 140 -16.6 140 -20 140 C-20 149.9 -20 159.8 -20 170 C-23.3 170 -26.6 170 -30 170 C-30 183.2 -30 196.4 -30 210 C-26.7 210 -23.4 210 -20 210 C-20 223.2 -20 236.4 -20 250 C-23.3 250 -26.6 250 -30 250 C-30 256.6 -30 263.2 -30 270 C-26.7 270 -23.4 270 -20 270 C-20 279.9 -20 289.8 -20 300 C-16.7 300 -13.4 300 -10 300 C-10 306.6 -10 313.2 -10 320 C-13.3 320 -16.6 320 -20 320 C-20 333.2 -20 346.4 -20 360 C-26.6 360 -33.2 360 -40 360 C-40 353.4 -40 346.8 -40 340 C-43.3 340 -46.6 340 -50 340 C-50 277.3 -50 214.6 -50 150 C-46.7 150 -43.4 150 -40 150 C-40 133.5 -40 117 -40 100 C-43.3 100 -46.6 100 -50 100 C-50 83.5 -50 67 -50 50 C-46.7 50 -43.4 50 -40 50 C-40 40.1 -40 30.2 -40 20 C-36.7 20 -33.4 20 -30 20 C-30 16.7 -30 13.4 -30 10 C-20.1 10 -10.2 10 0 10 C0 6.7 0 3.4 0 0 Z " fill="#A48860" transform="translate(60,910)"/>
<path d="M0 0 C6.6 0 13.2 0 20 0 C20 3.3 20 6.6 20 10 C23.3 10 26.6 10 30 10 C30 16.6 30 23.2 30 30 C33.3 30 36.6 30 40 30 C40 63 40 96 40 130 C36.7 130 33.4 130 30 130 C30 143.2 30 156.4 30 170 C33.3 170 36.6 170 40 170 C40 219.5 40 269 40 320 C36.7 320 33.4 320 30 320 C30 329.9 30 339.8 30 350 C26.7 350 23.4 350 20 350 C20 353.3 20 356.6 20 360 C16.7 360 13.4 360 10 360 C10 363.3 10 366.6 10 370 C-32.9 370 -75.8 370 -120 370 C-120 366.7 -120 363.4 -120 360 C-136.5 360 -153 360 -170 360 C-170 363.3 -170 366.6 -170 370 C-285.5 370 -401 370 -520 370 C-520 366.7 -520 363.4 -520 360 C-523.3 360 -526.6 360 -530 360 C-530 356.7 -530 353.4 -530 350 C-526.7 350 -523.4 350 -520 350 C-520 346.7 -520 343.4 -520 340 C-513.4 340 -506.8 340 -500 340 C-500 343.3 -500 346.6 -500 350 C-493.4 350 -486.8 350 -480 350 C-480 346.7 -480 343.4 -480 340 C-470.1 340 -460.2 340 -450 340 C-450 336.7 -450 333.4 -450 330 C-443.4 330 -436.8 330 -430 330 C-430 333.3 -430 336.6 -430 340 C-420.1 340 -410.2 340 -400 340 C-400 343.3 -400 346.6 -400 350 C-393.4 350 -386.8 350 -380 350 C-380 346.7 -380 343.4 -380 340 C-360.2 340 -340.4 340 -320 340 C-320 343.3 -320 346.6 -320 350 C-290.3 350 -260.6 350 -230 350 C-230 346.7 -230 343.4 -230 340 C-213.5 340 -197 340 -180 340 C-180 336.7 -180 333.4 -180 330 C-166.8 330 -153.6 330 -140 330 C-140 333.3 -140 336.6 -140 340 C-130.1 340 -120.2 340 -110 340 C-110 343.3 -110 346.6 -110 350 C-103.4 350 -96.8 350 -90 350 C-90 346.7 -90 343.4 -90 340 C-76.8 340 -63.6 340 -50 340 C-50 343.3 -50 346.6 -50 350 C-43.4 350 -36.8 350 -30 350 C-30 346.7 -30 343.4 -30 340 C-23.4 340 -16.8 340 -10 340 C-10 336.7 -10 333.4 -10 330 C-3.4 330 3.2 330 10 330 C10 320.1 10 310.2 10 300 C6.7 300 3.4 300 0 300 C0 293.4 0 286.8 0 280 C3.3 280 6.6 280 10 280 C10 273.4 10 266.8 10 260 C13.3 260 16.6 260 20 260 C20 253.4 20 246.8 20 240 C16.7 240 13.4 240 10 240 C10 233.4 10 226.8 10 220 C6.7 220 3.4 220 0 220 C0 213.4 0 206.8 0 200 C3.3 200 6.6 200 10 200 C10 186.8 10 173.6 10 160 C13.3 160 16.6 160 20 160 C20 153.4 20 146.8 20 140 C16.7 140 13.4 140 10 140 C10 133.4 10 126.8 10 120 C13.3 120 16.6 120 20 120 C20 116.7 20 113.4 20 110 C16.7 110 13.4 110 10 110 C10 93.5 10 77 10 60 C6.7 60 3.4 60 0 60 C0 53.4 0 46.8 0 40 C3.3 40 6.6 40 10 40 C10 30.1 10 20.2 10 10 C6.7 10 3.4 10 0 10 C0 6.7 0 3.4 0 0 Z " fill="#502C3A" transform="translate(560,920)"/>
<path d="M0 0 C13.2 0 26.4 0 40 0 C40 3.3 40 6.6 40 10 C56.5 10 73 10 90 10 C90 6.7 90 3.4 90 0 C129.6 0 169.2 0 210 0 C210 3.3 210 6.6 210 10 C223.2 10 236.4 10 250 10 C250 6.7 250 3.4 250 0 C269.8 0 289.6 0 310 0 C310 3.3 310 6.6 310 10 C326.5 10 343 10 360 10 C360 6.7 360 3.4 360 0 C399.6 0 439.2 0 480 0 C480 3.3 480 6.6 480 10 C503.1 10 526.2 10 550 10 C550 6.7 550 3.4 550 0 C573.1 0 596.2 0 620 0 C620 9.9 620 19.8 620 30 C600.2 30 580.4 30 560 30 C560 33.3 560 36.6 560 40 C530.3 40 500.6 40 470 40 C470 36.7 470 33.4 470 30 C463.4 30 456.8 30 450 30 C450 26.7 450 23.4 450 20 C440.1 20 430.2 20 420 20 C420 23.3 420 26.6 420 30 C400.2 30 380.4 30 360 30 C360 33.3 360 36.6 360 40 C340.2 40 320.4 40 300 40 C300 36.7 300 33.4 300 30 C286.8 30 273.6 30 260 30 C260 33.3 260 36.6 260 40 C246.8 40 233.6 40 220 40 C220 36.7 220 33.4 220 30 C210.1 30 200.2 30 190 30 C190 26.7 190 23.4 190 20 C163.6 20 137.2 20 110 20 C110 23.3 110 26.6 110 30 C90.2 30 70.4 30 50 30 C50 33.3 50 36.6 50 40 C40.1 40 30.2 40 20 40 C20 43.3 20 46.6 20 50 C16.7 50 13.4 50 10 50 C10 56.6 10 63.2 10 70 C6.7 70 3.4 70 0 70 C0 79.9 0 89.8 0 100 C-3.3 100 -6.6 100 -10 100 C-10 113.2 -10 126.4 -10 140 C-6.7 140 -3.4 140 0 140 C0 149.9 0 159.8 0 170 C-3.3 170 -6.6 170 -10 170 C-10 183.2 -10 196.4 -10 210 C-6.7 210 -3.4 210 0 210 C0 219.9 0 229.8 0 240 C-6.6 240 -13.2 240 -20 240 C-20 233.4 -20 226.8 -20 220 C-23.3 220 -26.6 220 -30 220 C-30 154 -30 88 -30 20 C-26.7 20 -23.4 20 -20 20 C-20 16.7 -20 13.4 -20 10 C-13.4 10 -6.8 10 0 10 C0 6.7 0 3.4 0 0 Z " fill="#A38860" transform="translate(640,290)"/>
<path d="M0 0 C6.6 0 13.2 0 20 0 C20 3.3 20 6.6 20 10 C23.3 10 26.6 10 30 10 C30 19.9 30 29.8 30 40 C26.7 40 23.4 40 20 40 C20 43.3 20 46.6 20 50 C23.3 50 26.6 50 30 50 C30 53.3 30 56.6 30 60 C26.7 60 23.4 60 20 60 C20 63.3 20 66.6 20 70 C23.3 70 26.6 70 30 70 C30 106.3 30 142.6 30 180 C26.7 180 23.4 180 20 180 C20 183.3 20 186.6 20 190 C10.1 190 0.2 190 -10 190 C-10 186.7 -10 183.4 -10 180 C-13.3 180 -16.6 180 -20 180 C-20 183.3 -20 186.6 -20 190 C-23.3 190 -26.6 190 -30 190 C-30 186.7 -30 183.4 -30 180 C-33.3 180 -36.6 180 -40 180 C-40 176.7 -40 173.4 -40 170 C-43.3 170 -46.6 170 -50 170 C-50 173.3 -50 176.6 -50 180 C-53.3 180 -56.6 180 -60 180 C-60 176.7 -60 173.4 -60 170 C-63.3 170 -66.6 170 -70 170 C-70 166.7 -70 163.4 -70 160 C-66.7 160 -63.4 160 -60 160 C-60 156.7 -60 153.4 -60 150 C-63.3 150 -66.6 150 -70 150 C-70 152.64 -70 155.28 -70 158 C-70.66 157.67 -71.32 157.34 -72 157 C-71.67 155.35 -71.34 153.7 -71 152 C-74.59717306 152.37932133 -74.59717306 152.37932133 -77.3125 154.53125 C-79.74023681 156.64428019 -81.5292406 156.29896798 -84.6875 156.1875 C-85.68136719 156.16042969 -86.67523437 156.13335938 -87.69921875 156.10546875 C-88.45847656 156.07066406 -89.21773437 156.03585937 -90 156 C-90 154.02 -90 152.04 -90 150 C-86.7 150 -83.4 150 -80 150 C-80 146.7 -80 143.4 -80 140 C-83.3 140 -86.6 140 -90 140 C-90 136.7 -90 133.4 -90 130 C-106.5 130 -123 130 -140 130 C-140 126.7 -140 123.4 -140 120 C-146.6 120 -153.2 120 -160 120 C-160 116.7 -160 113.4 -160 110 C-163.3 110 -166.6 110 -170 110 C-170 106.7 -170 103.4 -170 100 C-176.6 100 -183.2 100 -190 100 C-190 93.4 -190 86.8 -190 80 C-180.1 80 -170.2 80 -160 80 C-160 76.7 -160 73.4 -160 70 C-143.5 70 -127 70 -110 70 C-110 73.3 -110 76.6 -110 80 C-106.7 80 -103.4 80 -100 80 C-100 73.4 -100 66.8 -100 60 C-93.4 60 -86.8 60 -80 60 C-80 56.7 -80 53.4 -80 50 C-76.7 50 -73.4 50 -70 50 C-70 46.7 -70 43.4 -70 40 C-66.7 40 -63.4 40 -60 40 C-60 36.7 -60 33.4 -60 30 C-53.4 30 -46.8 30 -40 30 C-40 33.3 -40 36.6 -40 40 C-36.7 40 -33.4 40 -30 40 C-30 33.4 -30 26.8 -30 20 C-23.4 20 -16.8 20 -10 20 C-10 16.7 -10 13.4 -10 10 C-6.7 10 -3.4 10 0 10 C0 6.7 0 3.4 0 0 Z " fill="#502C3A" transform="translate(1260,780)"/>
<path d="M0 0 C9.9 0 19.8 0 30 0 C30 19.8 30 39.6 30 60 C26.7 60 23.4 60 20 60 C20 76.5 20 93 20 110 C23.3 110 26.6 110 30 110 C30 152.9 30 195.8 30 240 C26.7 240 23.4 240 20 240 C20 243.3 20 246.6 20 250 C16.7 250 13.4 250 10 250 C10 253.3 10 256.6 10 260 C-79.1 260 -168.2 260 -260 260 C-260 256.7 -260 253.4 -260 250 C-279.8 250 -299.6 250 -320 250 C-320 253.3 -320 256.6 -320 260 C-336.5 260 -353 260 -370 260 C-370 256.7 -370 253.4 -370 250 C-376.6 250 -383.2 250 -390 250 C-390 246.7 -390 243.4 -390 240 C-393.3 240 -396.6 240 -400 240 C-400 233.4 -400 226.8 -400 220 C-396.7 220 -393.4 220 -390 220 C-390 223.3 -390 226.6 -390 230 C-383.4 230 -376.8 230 -370 230 C-370 233.3 -370 236.6 -370 240 C-363.4 240 -356.8 240 -350 240 C-350 236.7 -350 233.4 -350 230 C-340.1 230 -330.2 230 -320 230 C-320 226.7 -320 223.4 -320 220 C-296.9 220 -273.8 220 -250 220 C-250 223.3 -250 226.6 -250 230 C-243.4 230 -236.8 230 -230 230 C-230 233.3 -230 236.6 -230 240 C-220.1 240 -210.2 240 -200 240 C-200 236.7 -200 233.4 -200 230 C-193.4 230 -186.8 230 -180 230 C-180 233.3 -180 236.6 -180 240 C-173.4 240 -166.8 240 -160 240 C-160 236.7 -160 233.4 -160 230 C-153.4 230 -146.8 230 -140 230 C-140 226.7 -140 223.4 -140 220 C-130.1 220 -120.2 220 -110 220 C-110 223.3 -110 226.6 -110 230 C-96.8 230 -83.6 230 -70 230 C-70 226.7 -70 223.4 -70 220 C-60.1 220 -50.2 220 -40 220 C-40 223.3 -40 226.6 -40 230 C-26.8 230 -13.6 230 0 230 C0 220.1 0 210.2 0 200 C-3.3 200 -6.6 200 -10 200 C-10 190.1 -10 180.2 -10 170 C-6.7 170 -3.4 170 0 170 C0 153.5 0 137 0 120 C-3.3 120 -6.6 120 -10 120 C-10 96.9 -10 73.8 -10 50 C-6.7 50 -3.4 50 0 50 C0 43.4 0 36.8 0 30 C3.3 30 6.6 30 10 30 C10 23.4 10 16.8 10 10 C6.7 10 3.4 10 0 10 C0 6.7 0 3.4 0 0 Z " fill="#502C3A" transform="translate(1260,1030)"/>
<path d="M0 0 C49.5 0 99 0 150 0 C150 3.3 150 6.6 150 10 C156.6 10 163.2 10 170 10 C170 13.3 170 16.6 170 20 C166.7 20 163.4 20 160 20 C160 23.3 160 26.6 160 30 C146.8 30 133.6 30 120 30 C120 26.7 120 23.4 120 20 C113.4 20 106.8 20 100 20 C100 23.3 100 26.6 100 30 C86.8 30 73.6 30 60 30 C60 33.3 60 36.6 60 40 C50.1 40 40.2 40 30 40 C30 36.7 30 33.4 30 30 C23.4 30 16.8 30 10 30 C10 33.3 10 36.6 10 40 C6.7 40 3.4 40 0 40 C0 49.9 0 59.8 0 70 C-3.3 70 -6.6 70 -10 70 C-10 83.2 -10 96.4 -10 110 C-13.3 110 -16.6 110 -20 110 C-20 116.6 -20 123.2 -20 130 C-16.7 130 -13.4 130 -10 130 C-10 143.2 -10 156.4 -10 170 C-13.3 170 -16.6 170 -20 170 C-20 179.9 -20 189.8 -20 200 C-16.7 200 -13.4 200 -10 200 C-10 213.2 -10 226.4 -10 240 C-6.7 240 -3.4 240 0 240 C0 269.7 0 299.4 0 330 C-3.3 330 -6.6 330 -10 330 C-10 356.4 -10 382.8 -10 410 C-6.7 410 -3.4 410 0 410 C0 423.2 0 436.4 0 450 C3.3 450 6.6 450 10 450 C10 453.3 10 456.6 10 460 C6.7 460 3.4 460 0 460 C0 463.3 0 466.6 0 470 C-3.3 470 -6.6 470 -10 470 C-10 473.3 -10 476.6 -10 480 C-16.6 480 -23.2 480 -30 480 C-30 476.7 -30 473.4 -30 470 C-33.3 470 -36.6 470 -40 470 C-40 420.5 -40 371 -40 320 C-36.7 320 -33.4 320 -30 320 C-30 293.6 -30 267.2 -30 240 C-33.3 240 -36.6 240 -40 240 C-40 180.6 -40 121.2 -40 60 C-36.7 60 -33.4 60 -30 60 C-30 46.8 -30 33.6 -30 20 C-26.7 20 -23.4 20 -20 20 C-20 16.7 -20 13.4 -20 10 C-13.4 10 -6.8 10 0 10 C0 6.7 0 3.4 0 0 Z " fill="#502C3A" transform="translate(650,570)"/>
<path d="M0 0 C13.2 0 26.4 0 40 0 C40 3.3 40 6.6 40 10 C43.3 10 46.6 10 50 10 C50 16.6 50 23.2 50 30 C53.3 30 56.6 30 60 30 C60 72.9 60 115.8 60 160 C56.7 160 53.4 160 50 160 C50 183.1 50 206.2 50 230 C53.3 230 56.6 230 60 230 C60 236.6 60 243.2 60 250 C56.7 250 53.4 250 50 250 C50 253.3 50 256.6 50 260 C46.7 260 43.4 260 40 260 C40 263.3 40 266.6 40 270 C26.8 270 13.6 270 0 270 C0 266.7 0 263.4 0 260 C-3.3 260 -6.6 260 -10 260 C-10 253.4 -10 246.8 -10 240 C-13.3 240 -16.6 240 -20 240 C-20 193.8 -20 147.6 -20 100 C-16.7 100 -13.4 100 -10 100 C-10 86.8 -10 73.6 -10 60 C-13.3 60 -16.6 60 -20 60 C-20 46.8 -20 33.6 -20 20 C-16.7 20 -13.4 20 -10 20 C-10 16.7 -10 13.4 -10 10 C-6.7 10 -3.4 10 0 10 C0 6.7 0 3.4 0 0 Z " fill="#502C3A" transform="translate(30,10)"/>
<path d="M0 0 C6.6 0 13.2 0 20 0 C20 3.3 20 6.6 20 10 C23.3 10 26.6 10 30 10 C30 13.3 30 16.6 30 20 C33.3 20 36.6 20 40 20 C40 29.9 40 39.8 40 50 C36.7 50 33.4 50 30 50 C30 69.8 30 89.6 30 110 C33.3 110 36.6 110 40 110 C40 149.6 40 189.2 40 230 C36.7 230 33.4 230 30 230 C30 236.6 30 243.2 30 250 C26.7 250 23.4 250 20 250 C20 253.3 20 256.6 20 260 C-26.2 260 -72.4 260 -120 260 C-120 256.7 -120 253.4 -120 250 C-136.5 250 -153 250 -170 250 C-170 253.3 -170 256.6 -170 260 C-206.3 260 -242.6 260 -280 260 C-280 256.7 -280 253.4 -280 250 C-283.3 250 -286.6 250 -290 250 C-290 246.7 -290 243.4 -290 240 C-293.3 240 -296.6 240 -300 240 C-300 230.1 -300 220.2 -300 210 C-296.7 210 -293.4 210 -290 210 C-290 213.3 -290 216.6 -290 220 C-286.7 220 -283.4 220 -280 220 C-280 223.3 -280 226.6 -280 230 C-276.7 230 -273.4 230 -270 230 C-270 226.7 -270 223.4 -270 220 C-256.8 220 -243.6 220 -230 220 C-230 223.3 -230 226.6 -230 230 C-213.5 230 -197 230 -180 230 C-180 226.7 -180 223.4 -180 220 C-156.9 220 -133.8 220 -110 220 C-110 223.3 -110 226.6 -110 230 C-100.1 230 -90.2 230 -80 230 C-80 233.3 -80 236.6 -80 240 C-63.5 240 -47 240 -30 240 C-30 236.7 -30 233.4 -30 230 C-16.8 230 -3.6 230 10 230 C10 220.1 10 210.2 10 200 C13.3 200 16.6 200 20 200 C20 176.9 20 153.8 20 130 C16.7 130 13.4 130 10 130 C10 120.1 10 110.2 10 100 C6.7 100 3.4 100 0 100 C0 83.5 0 67 0 50 C3.3 50 6.6 50 10 50 C10 36.8 10 23.6 10 10 C6.7 10 3.4 10 0 10 C0 6.7 0 3.4 0 0 Z " fill="#502C3A" transform="translate(1250,20)"/>
<path d="M0 0 C6.6 0 13.2 0 20 0 C20 9.9 20 19.8 20 30 C23.3 30 26.6 30 30 30 C30 39.9 30 49.8 30 60 C26.7 60 23.4 60 20 60 C20 76.5 20 93 20 110 C23.3 110 26.6 110 30 110 C30 149.6 30 189.2 30 230 C26.7 230 23.4 230 20 230 C20 246.5 20 263 20 280 C23.3 280 26.6 280 30 280 C30 332.8 30 385.6 30 440 C26.7 440 23.4 440 20 440 C20 443.3 20 446.6 20 450 C16.7 450 13.4 450 10 450 C10 453.3 10 456.6 10 460 C3.4 460 -3.2 460 -10 460 C-10 463.3 -10 466.6 -10 470 C-66.1 470 -122.2 470 -180 470 C-180 466.7 -180 463.4 -180 460 C-176.7 460 -173.4 460 -170 460 C-170 456.7 -170 453.4 -170 450 C-166.7 450 -163.4 450 -160 450 C-160 446.7 -160 443.4 -160 440 C-150.1 440 -140.2 440 -130 440 C-130 443.3 -130 446.6 -130 450 C-120.1 450 -110.2 450 -100 450 C-100 446.7 -100 443.4 -100 440 C-96.7 440 -93.4 440 -90 440 C-90 436.7 -90 433.4 -90 430 C-83.4 430 -76.8 430 -70 430 C-70 433.3 -70 436.6 -70 440 C-63.4 440 -56.8 440 -50 440 C-50 443.3 -50 446.6 -50 450 C-36.8 450 -23.6 450 -10 450 C-10 446.7 -10 443.4 -10 440 C-6.7 440 -3.4 440 0 440 C0 436.7 0 433.4 0 430 C3.3 430 6.6 430 10 430 C10 406.9 10 383.8 10 360 C6.7 360 3.4 360 0 360 C0 356.7 0 353.4 0 350 C3.3 350 6.6 350 10 350 C10 326.9 10 303.8 10 280 C6.7 280 3.4 280 0 280 C0 273.4 0 266.8 0 260 C-3.3 260 -6.6 260 -10 260 C-10 253.4 -10 246.8 -10 240 C-6.7 240 -3.4 240 0 240 C0 233.4 0 226.8 0 220 C3.3 220 6.6 220 10 220 C10 190.3 10 160.6 10 130 C6.7 130 3.4 130 0 130 C0 113.5 0 97 0 80 C-3.3 80 -6.6 80 -10 80 C-10 63.5 -10 47 -10 30 C-6.7 30 -3.4 30 0 30 C0 20.1 0 10.2 0 0 Z " fill="#A3885F" transform="translate(810,590)"/>
<path d="M0 0 C9.9 0 19.8 0 30 0 C30 3.3 30 6.6 30 10 C23.4 10 16.8 10 10 10 C10 16.6 10 23.2 10 30 C16.6 30 23.2 30 30 30 C30 33.3 30 36.6 30 40 C33.3 40 36.6 40 40 40 C40 43.3 40 46.6 40 50 C46.6 50 53.2 50 60 50 C60 53.3 60 56.6 60 60 C76.5 60 93 60 110 60 C110 63.3 110 66.6 110 70 C113.3 70 116.6 70 120 70 C120 73.3 120 76.6 120 80 C116.7 80 113.4 80 110 80 C110.33 81.65 110.66 83.3 111 85 C114.63 85 118.26 85 122 85 C122.33 84.01 122.66 83.02 123 82 C124.98 82 126.96 82 129 82 C129 83.65 129 85.3 129 87 C129.33 84.69 129.66 82.38 130 80 C133.3 80 136.6 80 140 80 C140 83.3 140 86.6 140 90 C136.7 90 133.4 90 130 90 C130 93.3 130 96.6 130 100 C133.3 100 136.6 100 140 100 C140 103.3 140 106.6 140 110 C143.3 110 146.6 110 150 110 C150 106.7 150 103.4 150 100 C153.3 100 156.6 100 160 100 C160 103.3 160 106.6 160 110 C163.3 110 166.6 110 170 110 C170 113.3 170 116.6 170 120 C173.3 120 176.6 120 180 120 C180 116.7 180 113.4 180 110 C183.3 110 186.6 110 190 110 C190 113.3 190 116.6 190 120 C199.9 120 209.8 120 220 120 C220 116.7 220 113.4 220 110 C223.3 110 226.6 110 230 110 C230 133.1 230 156.2 230 180 C220.1 180 210.2 180 200 180 C200 176.7 200 173.4 200 170 C190.1 170 180.2 170 170 170 C170 166.7 170 163.4 170 160 C163.4 160 156.8 160 150 160 C150 156.7 150 153.4 150 150 C143.4 150 136.8 150 130 150 C130 146.7 130 143.4 130 140 C123.4 140 116.8 140 110 140 C110 136.7 110 133.4 110 130 C103.4 130 96.8 130 90 130 C90 126.7 90 123.4 90 120 C83.4 120 76.8 120 70 120 C70 116.7 70 113.4 70 110 C66.7 110 63.4 110 60 110 C60 106.7 60 103.4 60 100 C53.4 100 46.8 100 40 100 C40 96.7 40 93.4 40 90 C33.4 90 26.8 90 20 90 C20 86.7 20 83.4 20 80 C16.7 80 13.4 80 10 80 C10 76.7 10 73.4 10 70 C6.7 70 3.4 70 0 70 C0 66.7 0 63.4 0 60 C-3.3 60 -6.6 60 -10 60 C-10 56.7 -10 53.4 -10 50 C-13.3 50 -16.6 50 -20 50 C-20 46.7 -20 43.4 -20 40 C-23.3 40 -26.6 40 -30 40 C-30 30.1 -30 20.2 -30 10 C-20.1 10 -10.2 10 0 10 C0 6.7 0 3.4 0 0 Z " fill="#6F4D41" transform="translate(1060,850)"/>
<path d="M0 0 C59.4 0 118.8 0 180 0 C180 3.3 180 6.6 180 10 C199.8 10 219.6 10 240 10 C240 6.7 240 3.4 240 0 C249.9 0 259.8 0 270 0 C270 6.6 270 13.2 270 20 C273.3 20 276.6 20 280 20 C280 23.3 280 26.6 280 30 C273.4 30 266.8 30 260 30 C260 33.3 260 36.6 260 40 C230.3 40 200.6 40 170 40 C170 36.7 170 33.4 170 30 C163.4 30 156.8 30 150 30 C150 26.7 150 23.4 150 20 C140.1 20 130.2 20 120 20 C120 23.3 120 26.6 120 30 C100.2 30 80.4 30 60 30 C60 33.3 60 36.6 60 40 C46.8 40 33.6 40 20 40 C20 36.7 20 33.4 20 30 C13.4 30 6.8 30 0 30 C0 33.3 0 36.6 0 40 C-3.3 40 -6.6 40 -10 40 C-10 46.6 -10 53.2 -10 60 C-6.7 60 -3.4 60 0 60 C0 79.8 0 99.6 0 120 C-3.3 120 -6.6 120 -10 120 C-10 126.6 -10 133.2 -10 140 C-6.7 140 -3.4 140 0 140 C0 146.6 0 153.2 0 160 C3.3 160 6.6 160 10 160 C10 173.2 10 186.4 10 200 C6.7 200 3.4 200 0 200 C0 213.2 0 226.4 0 240 C-3.3 240 -6.6 240 -10 240 C-10 236.7 -10 233.4 -10 230 C-13.3 230 -16.6 230 -20 230 C-20 203.6 -20 177.2 -20 150 C-23.3 150 -26.6 150 -30 150 C-30 107.1 -30 64.2 -30 20 C-26.7 20 -23.4 20 -20 20 C-20 16.7 -20 13.4 -20 10 C-13.4 10 -6.8 10 0 10 C0 6.7 0 3.4 0 0 Z " fill="#A38860" transform="translate(980,10)"/>
<path d="M0 0 C59.4 0 118.8 0 180 0 C180 6.6 180 13.2 180 20 C176.7 20 173.4 20 170 20 C170 23.3 170 26.6 170 30 C156.8 30 143.6 30 130 30 C130 33.3 130 36.6 130 40 C113.5 40 97 40 80 40 C80 36.7 80 33.4 80 30 C73.4 30 66.8 30 60 30 C60 26.7 60 23.4 60 20 C50.1 20 40.2 20 30 20 C30 23.3 30 26.6 30 30 C26.7 30 23.4 30 20 30 C20 33.3 20 36.6 20 40 C16.7 40 13.4 40 10 40 C10 43.3 10 46.6 10 50 C6.7 50 3.4 50 0 50 C0 56.6 0 63.2 0 70 C3.3 70 6.6 70 10 70 C10 76.6 10 83.2 10 90 C6.7 90 3.4 90 0 90 C0 93.3 0 96.6 0 100 C-3.3 100 -6.6 100 -10 100 C-10 106.6 -10 113.2 -10 120 C-6.7 120 -3.4 120 0 120 C0 133.2 0 146.4 0 160 C3.3 160 6.6 160 10 160 C10 166.6 10 173.2 10 180 C6.7 180 3.4 180 0 180 C0 186.6 0 193.2 0 200 C-3.3 200 -6.6 200 -10 200 C-10 203.3 -10 206.6 -10 210 C-13.3 210 -16.6 210 -20 210 C-20 206.7 -20 203.4 -20 200 C-23.3 200 -26.6 200 -30 200 C-30 193.4 -30 186.8 -30 180 C-26.7 180 -23.4 180 -20 180 C-20 163.5 -20 147 -20 130 C-23.3 130 -26.6 130 -30 130 C-30 113.5 -30 97 -30 80 C-26.7 80 -23.4 80 -20 80 C-20 73.4 -20 66.8 -20 60 C-23.3 60 -26.6 60 -30 60 C-30 53.4 -30 46.8 -30 40 C-26.7 40 -23.4 40 -20 40 C-20 33.4 -20 26.8 -20 20 C-16.7 20 -13.4 20 -10 20 C-10 16.7 -10 13.4 -10 10 C-6.7 10 -3.4 10 0 10 C0 6.7 0 3.4 0 0 Z " fill="#A48860" transform="translate(640,1070)"/>
<path d="M0 0 C3.3 0 6.6 0 10 0 C10 3.3 10 6.6 10 10 C13.3 10 16.6 10 20 10 C20 36.4 20 62.8 20 90 C16.7 90 13.4 90 10 90 C10 103.2 10 116.4 10 130 C13.3 130 16.6 130 20 130 C20 146.5 20 163 20 180 C16.7 180 13.4 180 10 180 C10 183.3 10 186.6 10 190 C6.7 190 3.4 190 0 190 C0 193.3 0 196.6 0 200 C-6.6 200 -13.2 200 -20 200 C-20 203.3 -20 206.6 -20 210 C-29.9 210 -39.8 210 -50 210 C-50 206.7 -50 203.4 -50 200 C-63.2 200 -76.4 200 -90 200 C-90 203.3 -90 206.6 -90 210 C-119.7 210 -149.4 210 -180 210 C-180 206.7 -180 203.4 -180 200 C-183.3 200 -186.6 200 -190 200 C-190 196.7 -190 193.4 -190 190 C-186.7 190 -183.4 190 -180 190 C-180 186.7 -180 183.4 -180 180 C-173.4 180 -166.8 180 -160 180 C-160 183.3 -160 186.6 -160 190 C-140.2 190 -120.4 190 -100 190 C-100 186.7 -100 183.4 -100 180 C-93.4 180 -86.8 180 -80 180 C-80 176.7 -80 173.4 -80 170 C-73.4 170 -66.8 170 -60 170 C-60 173.3 -60 176.6 -60 180 C-56.7 180 -53.4 180 -50 180 C-50 183.3 -50 186.6 -50 190 C-40.1 190 -30.2 190 -20 190 C-20 186.7 -20 183.4 -20 180 C-16.7 180 -13.4 180 -10 180 C-10 176.7 -10 173.4 -10 170 C-6.7 170 -3.4 170 0 170 C0 156.8 0 143.6 0 130 C-3.3 130 -6.6 130 -10 130 C-10 120.1 -10 110.2 -10 100 C-6.7 100 -3.4 100 0 100 C0 80.2 0 60.4 0 40 C-3.3 40 -6.6 40 -10 40 C-10 30.1 -10 20.2 -10 10 C-6.7 10 -3.4 10 0 10 C0 6.7 0 3.4 0 0 Z " fill="#502C3A" transform="translate(820,1080)"/>
<path d="M0 0 C13.2 0 26.4 0 40 0 C40 6.6 40 13.2 40 20 C36.7 20 33.4 20 30 20 C30 23.3 30 26.6 30 30 C23.4 30 16.8 30 10 30 C10 33.3 10 36.6 10 40 C6.7 40 3.4 40 0 40 C0 43.3 0 46.6 0 50 C3.3 50 6.6 50 10 50 C10 66.5 10 83 10 100 C6.7 100 3.4 100 0 100 C0 119.8 0 139.6 0 160 C3.3 160 6.6 160 10 160 C10 176.5 10 193 10 210 C6.7 210 3.4 210 0 210 C0 213.3 0 216.6 0 220 C3.3 220 6.6 220 10 220 C10 229.9 10 239.8 10 250 C6.7 250 3.4 250 0 250 C0 253.3 0 256.6 0 260 C-3.3 260 -6.6 260 -10 260 C-10 253.4 -10 246.8 -10 240 C-13.3 240 -16.6 240 -20 240 C-20 193.8 -20 147.6 -20 100 C-16.7 100 -13.4 100 -10 100 C-10 86.8 -10 73.6 -10 60 C-13.3 60 -16.6 60 -20 60 C-20 46.8 -20 33.6 -20 20 C-16.7 20 -13.4 20 -10 20 C-10 16.7 -10 13.4 -10 10 C-6.7 10 -3.4 10 0 10 C0 6.7 0 3.4 0 0 Z " fill="#A48860" transform="translate(30,10)"/>
<path d="M0 0 C6.6 0 13.2 0 20 0 C20 6.6 20 13.2 20 20 C23.3 20 26.6 20 30 20 C30 23.3 30 26.6 30 30 C33.3 30 36.6 30 40 30 C40 33.3 40 36.6 40 40 C43.3 40 46.6 40 50 40 C50 43.3 50 46.6 50 50 C56.6 50 63.2 50 70 50 C70 53.3 70 56.6 70 60 C73.3 60 76.6 60 80 60 C80 63.3 80 66.6 80 70 C83.3 70 86.6 70 90 70 C90 73.3 90 76.6 90 80 C93.3 80 96.6 80 100 80 C100 83.3 100 86.6 100 90 C103.3 90 106.6 90 110 90 C110 93.3 110 96.6 110 100 C119.9 100 129.8 100 140 100 C140 103.3 140 106.6 140 110 C143.3 110 146.6 110 150 110 C150 113.3 150 116.6 150 120 C156.6 120 163.2 120 170 120 C170 123.3 170 126.6 170 130 C179.9 130 189.8 130 200 130 C200 133.3 200 136.6 200 140 C209.9 140 219.8 140 230 140 C230 143.3 230 146.6 230 150 C236.6 150 243.2 150 250 150 C250 153.3 250 156.6 250 160 C253.3 160 256.6 160 260 160 C260 163.3 260 166.6 260 170 C250.1 170 240.2 170 230 170 C230 166.7 230 163.4 230 160 C220.1 160 210.2 160 200 160 C200 156.7 200 153.4 200 150 C193.4 150 186.8 150 180 150 C180 146.7 180 143.4 180 140 C173.4 140 166.8 140 160 140 C160 136.7 160 133.4 160 130 C153.4 130 146.8 130 140 130 C140 126.7 140 123.4 140 120 C133.4 120 126.8 120 120 120 C120 116.7 120 113.4 120 110 C113.4 110 106.8 110 100 110 C100 106.7 100 103.4 100 100 C96.7 100 93.4 100 90 100 C90 96.7 90 93.4 90 90 C83.4 90 76.8 90 70 90 C70 86.7 70 83.4 70 80 C63.4 80 56.8 80 50 80 C50 76.7 50 73.4 50 70 C46.7 70 43.4 70 40 70 C40 66.7 40 63.4 40 60 C36.7 60 33.4 60 30 60 C30 56.7 30 53.4 30 50 C26.7 50 23.4 50 20 50 C20 46.7 20 43.4 20 40 C16.7 40 13.4 40 10 40 C10 36.7 10 33.4 10 30 C6.7 30 3.4 30 0 30 C0 20.1 0 10.2 0 0 Z " fill="#A48860" transform="translate(1030,860)"/>
<path d="M0 0 C6.6 0 13.2 0 20 0 C20 6.6 20 13.2 20 20 C16.7 20 13.4 20 10 20 C10 29.9 10 39.8 10 50 C13.3 50 16.6 50 20 50 C20 59.9 20 69.8 20 80 C23.3 80 26.6 80 30 80 C30 113 30 146 30 180 C26.7 180 23.4 180 20 180 C20 189.9 20 199.8 20 210 C13.4 210 6.8 210 0 210 C0 203.4 0 196.8 0 190 C-3.3 190 -6.6 190 -10 190 C-10 186.7 -10 183.4 -10 180 C-6.7 180 -3.4 180 0 180 C0 163.5 0 147 0 130 C-3.3 130 -6.6 130 -10 130 C-10 110.2 -10 90.4 -10 70 C-6.7 70 -3.4 70 0 70 C0 53.5 0 37 0 20 C-3.3 20 -6.6 20 -10 20 C-10 16.7 -10 13.4 -10 10 C-6.7 10 -3.4 10 0 10 C0 6.7 0 3.4 0 0 Z " fill="#6F4E42" transform="translate(40,40)"/>
<path d="M0 0 C6.6 0 13.2 0 20 0 C20 3.3 20 6.6 20 10 C23.3 10 26.6 10 30 10 C30 16.6 30 23.2 30 30 C26.7 30 23.4 30 20 30 C20 46.5 20 63 20 80 C23.3 80 26.6 80 30 80 C30 99.8 30 119.6 30 140 C23.4 140 16.8 140 10 140 C10 130.1 10 120.2 10 110 C6.7 110 3.4 110 0 110 C0 100.1 0 90.2 0 80 C-3.3 80 -6.6 80 -10 80 C-10 63.5 -10 47 -10 30 C-6.7 30 -3.4 30 0 30 C0 20.1 0 10.2 0 0 Z " fill="#502C3A" transform="translate(1260,590)"/>
<path d="M0 0 C3.3 0 6.6 0 10 0 C10 6.6 10 13.2 10 20 C6.7 20 3.4 20 0 20 C0 26.6 0 33.2 0 40 C-3.3 40 -6.6 40 -10 40 C-10 46.6 -10 53.2 -10 60 C-13.3 60 -16.6 60 -20 60 C-20 63.3 -20 66.6 -20 70 C-26.6 70 -33.2 70 -40 70 C-40 73.3 -40 76.6 -40 80 C-46.6 80 -53.2 80 -60 80 C-60 76.7 -60 73.4 -60 70 C-56.7 70 -53.4 70 -50 70 C-50 66.7 -50 63.4 -50 60 C-43.4 60 -36.8 60 -30 60 C-30 56.7 -30 53.4 -30 50 C-26.7 50 -23.4 50 -20 50 C-20 43.4 -20 36.8 -20 30 C-16.7 30 -13.4 30 -10 30 C-10 23.4 -10 16.8 -10 10 C-6.7 10 -3.4 10 0 10 C0 6.7 0 3.4 0 0 Z " fill="#512C3A" transform="translate(740,660)"/>
<path d="M0 0 C6.6 0 13.2 0 20 0 C20 3.3 20 6.6 20 10 C16.7 10 13.4 10 10 10 C10 16.6 10 23.2 10 30 C6.7 30 3.4 30 0 30 C0 26.7 0 23.4 0 20 C-3.3 20 -6.6 20 -10 20 C-10 16.7 -10 13.4 -10 10 C-6.7 10 -3.4 10 0 10 C0 6.7 0 3.4 0 0 Z " fill="#6F4E42" transform="translate(1160,920)"/>
<path d="M0 0 C6.6 0 13.2 0 20 0 C20 3.3 20 6.6 20 10 C16.7 10 13.4 10 10 10 C10 13.3 10 16.6 10 20 C6.7 20 3.4 20 0 20 C0 23.3 0 26.6 0 30 C-3.3 30 -6.6 30 -10 30 C-10 23.4 -10 16.8 -10 10 C-6.7 10 -3.4 10 0 10 C0 6.7 0 3.4 0 0 Z " fill="#512C3A" transform="translate(730,920)"/>
<path d="M0 0 C3.3 0 6.6 0 10 0 C10 6.6 10 13.2 10 20 C6.7 20 3.4 20 0 20 C0 23.3 0 26.6 0 30 C-3.3 30 -6.6 30 -10 30 C-10 23.4 -10 16.8 -10 10 C-6.7 10 -3.4 10 0 10 C0 6.7 0 3.4 0 0 Z " fill="#512C3A" transform="translate(760,800)"/>
<path d="M0 0 C3.3 0 6.6 0 10 0 C10 6.6 10 13.2 10 20 C6.7 20 3.4 20 0 20 C0.020625 21.464375 0.04125 22.92875 0.0625 24.4375 C0.08392007 25.95832518 0.07179964 27.48071962 0 29 C-0.33 29.33 -0.66 29.66 -1 30 C-3.97 30 -6.94 30 -10 30 C-10 23.4 -10 16.8 -10 10 C-6.7 10 -3.4 10 0 10 C0 6.7 0 3.4 0 0 Z " fill="#512C3A" transform="translate(670,640)"/>
<path d="M0 0 C6.6 0 13.2 0 20 0 C20 6.6 20 13.2 20 20 C16.7 20 13.4 20 10 20 C10 16.7 10 13.4 10 10 C6.7 10 3.4 10 0 10 C0 6.7 0 3.4 0 0 Z " fill="#6F4E43" transform="translate(1190,940)"/>
<path d="M0 0 C9.9 0 19.8 0 30 0 C30 3.3 30 6.6 30 10 C20.1 10 10.2 10 0 10 C0 6.7 0 3.4 0 0 Z " fill="#502C3A" transform="translate(1070,870)"/>
<path d="M0 0 C9.9 0 19.8 0 30 0 C30 3.3 30 6.6 30 10 C20.1 10 10.2 10 0 10 C0 6.7 0 3.4 0 0 Z " fill="#704E42" transform="translate(1060,850)"/>
<path d="M0 0 C6.6 0 13.2 0 20 0 C20 3.3 20 6.6 20 10 C13.4 10 6.8 10 0 10 C0 6.7 0 3.4 0 0 Z " fill="#A48860" transform="translate(1240,980)"/>
<path d="M0 0 C6.6 0 13.2 0 20 0 C20 3.3 20 6.6 20 10 C13.4 10 6.8 10 0 10 C0 6.7 0 3.4 0 0 Z " fill="#29172C" transform="translate(1250,870)"/>
<path d="M0 0 C6.6 0 13.2 0 20 0 C20 3.3 20 6.6 20 10 C13.4 10 6.8 10 0 10 C0 6.7 0 3.4 0 0 Z " fill="#29172C" transform="translate(1150,870)"/>
<path d="M0 0 C6.6 0 13.2 0 20 0 C20 3.3 20 6.6 20 10 C13.4 10 6.8 10 0 10 C0 6.7 0 3.4 0 0 Z " fill="#29172D" transform="translate(1070,860)"/>
<path d="M0 0 C6.6 0 13.2 0 20 0 C20 3.3 20 6.6 20 10 C13.4 10 6.8 10 0 10 C0 6.7 0 3.4 0 0 Z " fill="#29162C" transform="translate(1230,830)"/>
<path d="M0 0 C3.3 0 6.6 0 10 0 C10 6.6 10 13.2 10 20 C6.7 20 3.4 20 0 20 C0 13.4 0 6.8 0 0 Z " fill="#A4885F" transform="translate(770,800)"/>
<path d="M0 0 C6.6 0 13.2 0 20 0 C20 3.3 20 6.6 20 10 C13.4 10 6.8 10 0 10 C0 6.7 0 3.4 0 0 Z " fill="#A48860" transform="translate(700,730)"/>
<path d="M0 0 C3.3 0 6.6 0 10 0 C10 6.6 10 13.2 10 20 C6.7 20 3.4 20 0 20 C0 13.4 0 6.8 0 0 Z " fill="#A4885F" transform="translate(730,700)"/>
<path d="M0 0 C3.3 0 6.6 0 10 0 C10 6.6 10 13.2 10 20 C6.7 20 3.4 20 0 20 C0 13.4 0 6.8 0 0 Z " fill="#A48860" transform="translate(740,680)"/>
<path d="M0 0 C3.3 0 6.6 0 10 0 C10 6.6 10 13.2 10 20 C6.7 20 3.4 20 0 20 C0 13.4 0 6.8 0 0 Z " fill="#A4885F" transform="translate(680,640)"/>
<path d="M0 0 C3.3 0 6.6 0 10 0 C10 3.3 10 6.6 10 10 C6.7 10 3.4 10 0 10 C0 6.7 0 3.4 0 0 Z " fill="#502C39" transform="translate(680,1240)"/>
<path d="M0 0 C3.3 0 6.6 0 10 0 C10 3.3 10 6.6 10 10 C6.7 10 3.4 10 0 10 C0 6.7 0 3.4 0 0 Z " fill="#512C3A" transform="translate(300,1230)"/>
<path d="M0 0 C3.3 0 6.6 0 10 0 C10 3.3 10 6.6 10 10 C6.7 10 3.4 10 0 10 C0 6.7 0 3.4 0 0 Z " fill="#512C3A" transform="translate(520,1220)"/>
<path d="M0 0 C3.3 0 6.6 0 10 0 C10 3.3 10 6.6 10 10 C6.7 10 3.4 10 0 10 C0 6.7 0 3.4 0 0 Z " fill="#512C3A" transform="translate(1200,1210)"/>
<path d="M0 0 C3.3 0 6.6 0 10 0 C10 3.3 10 6.6 10 10 C6.7 10 3.4 10 0 10 C0 6.7 0 3.4 0 0 Z " fill="#512C3A" transform="translate(1120,1210)"/>
<path d="M0 0 C3.3 0 6.6 0 10 0 C10 3.3 10 6.6 10 10 C6.7 10 3.4 10 0 10 C0 6.7 0 3.4 0 0 Z " fill="#512C3A" transform="translate(920,1210)"/>
<path d="M0 0 C3.3 0 6.6 0 10 0 C10 3.3 10 6.6 10 10 C6.7 10 3.4 10 0 10 C0 6.7 0 3.4 0 0 Z " fill="#512C39" transform="translate(770,1210)"/>
<path d="M0 0 C3.3 0 6.6 0 10 0 C10 3.3 10 6.6 10 10 C6.7 10 3.4 10 0 10 C0 6.7 0 3.4 0 0 Z " fill="#512C39" transform="translate(180,1210)"/>
<path d="M0 0 C3.3 0 6.6 0 10 0 C10 3.3 10 6.6 10 10 C6.7 10 3.4 10 0 10 C0 6.7 0 3.4 0 0 Z " fill="#502C39" transform="translate(80,1190)"/>
<path d="M0 0 C3.3 0 6.6 0 10 0 C10 3.3 10 6.6 10 10 C6.7 10 3.4 10 0 10 C0 6.7 0 3.4 0 0 Z " fill="#512C39" transform="translate(410,1180)"/>
<path d="M0 0 C3.3 0 6.6 0 10 0 C10 3.3 10 6.6 10 10 C6.7 10 3.4 10 0 10 C0 6.7 0 3.4 0 0 Z " fill="#A48861" transform="translate(690,1170)"/>
<path d="M0 0 C3.3 0 6.6 0 10 0 C10 3.3 10 6.6 10 10 C6.7 10 3.4 10 0 10 C0 6.7 0 3.4 0 0 Z " fill="#512C3A" transform="translate(1020,1160)"/>
<path d="M0 0 C3.3 0 6.6 0 10 0 C10 3.3 10 6.6 10 10 C6.7 10 3.4 10 0 10 C0 6.7 0 3.4 0 0 Z " fill="#A48760" transform="translate(900,1160)"/>
<path d="M0 0 C3.3 0 6.6 0 10 0 C10 3.3 10 6.6 10 10 C6.7 10 3.4 10 0 10 C0 6.7 0 3.4 0 0 Z " fill="#512C3A" transform="translate(270,1150)"/>
<path d="M0 0 C3.3 0 6.6 0 10 0 C10 3.3 10 6.6 10 10 C6.7 10 3.4 10 0 10 C0 6.7 0 3.4 0 0 Z " fill="#A48860" transform="translate(750,1150)"/>
<path d="M0 0 C3.3 0 6.6 0 10 0 C10 3.3 10 6.6 10 10 C6.7 10 3.4 10 0 10 C0 6.7 0 3.4 0 0 Z " fill="#A48860" transform="translate(80,1140)"/>
<path d="M0 0 C3.3 0 6.6 0 10 0 C10 3.3 10 6.6 10 10 C6.7 10 3.4 10 0 10 C0 6.7 0 3.4 0 0 Z " fill="#A3875F" transform="translate(680,1120)"/>
<path d="M0 0 C3.3 0 6.6 0 10 0 C10 3.3 10 6.6 10 10 C6.7 10 3.4 10 0 10 C0 6.7 0 3.4 0 0 Z " fill="#512C3A" transform="translate(1150,1110)"/>
<path d="M0 0 C3.3 0 6.6 0 10 0 C10 3.3 10 6.6 10 10 C6.7 10 3.4 10 0 10 C0 6.7 0 3.4 0 0 Z " fill="#A48860" transform="translate(880,1090)"/>
<path d="M0 0 C3.3 0 6.6 0 10 0 C10 3.3 10 6.6 10 10 C6.7 10 3.4 10 0 10 C0 6.7 0 3.4 0 0 Z " fill="#512C3A" transform="translate(1220,1080)"/>
<path d="M0 0 C3.3 0 6.6 0 10 0 C10 3.3 10 6.6 10 10 C6.7 10 3.4 10 0 10 C0 6.7 0 3.4 0 0 Z " fill="#512C3A" transform="translate(500,1070)"/>
<path d="M0 0 C3.3 0 6.6 0 10 0 C10 3.3 10 6.6 10 10 C6.7 10 3.4 10 0 10 C0 6.7 0 3.4 0 0 Z " fill="#A48861" transform="translate(130,1060)"/>
<path d="M0 0 C3.3 0 6.6 0 10 0 C10 3.3 10 6.6 10 10 C6.7 10 3.4 10 0 10 C0 6.7 0 3.4 0 0 Z " fill="#A48861" transform="translate(370,1020)"/>
<path d="M0 0 C3.3 0 6.6 0 10 0 C10 3.3 10 6.6 10 10 C6.7 10 3.4 10 0 10 C0 6.7 0 3.4 0 0 Z " fill="#A48860" transform="translate(200,1010)"/>
<path d="M0 0 C3.3 0 6.6 0 10 0 C10 3.3 10 6.6 10 10 C6.7 10 3.4 10 0 10 C0 6.7 0 3.4 0 0 Z " fill="#A48760" transform="translate(780,990)"/>
<path d="M0 0 C3.3 0 6.6 0 10 0 C10 3.3 10 6.6 10 10 C6.7 10 3.4 10 0 10 C0 6.7 0 3.4 0 0 Z " fill="#A48860" transform="translate(1270,990)"/>
<path d="M0 0 C3.3 0 6.6 0 10 0 C10 3.3 10 6.6 10 10 C6.7 10 3.4 10 0 10 C0 6.7 0 3.4 0 0 Z " fill="#A4885F" transform="translate(680,990)"/>
<path d="M0 0 C3.3 0 6.6 0 10 0 C10 3.3 10 6.6 10 10 C6.7 10 3.4 10 0 10 C0 6.7 0 3.4 0 0 Z " fill="#A4885F" transform="translate(80,990)"/>
<path d="M0 0 C3.3 0 6.6 0 10 0 C10 3.3 10 6.6 10 10 C6.7 10 3.4 10 0 10 C0 6.7 0 3.4 0 0 Z " fill="#A48860" transform="translate(950,980)"/>
<path d="M0 0 C3.3 0 6.6 0 10 0 C10 3.3 10 6.6 10 10 C6.7 10 3.4 10 0 10 C0 6.7 0 3.4 0 0 Z " fill="#512C39" transform="translate(500,980)"/>
<path d="M0 0 C3.3 0 6.6 0 10 0 C10 3.3 10 6.6 10 10 C6.7 10 3.4 10 0 10 C0 6.7 0 3.4 0 0 Z " fill="#A48861" transform="translate(1210,970)"/>
<path d="M0 0 C3.3 0 6.6 0 10 0 C10 3.3 10 6.6 10 10 C6.7 10 3.4 10 0 10 C0 6.7 0 3.4 0 0 Z " fill="#A48860" transform="translate(290,960)"/>
<path d="M0 0 C3.3 0 6.6 0 10 0 C10 3.3 10 6.6 10 10 C6.7 10 3.4 10 0 10 C0 6.7 0 3.4 0 0 Z " fill="#A48860" transform="translate(1260,950)"/>
<path d="M0 0 C3.3 0 6.6 0 10 0 C10 3.3 10 6.6 10 10 C6.7 10 3.4 10 0 10 C0 6.7 0 3.4 0 0 Z " fill="#A48860" transform="translate(1210,950)"/>
<path d="M0 0 C3.3 0 6.6 0 10 0 C10 3.3 10 6.6 10 10 C6.7 10 3.4 10 0 10 C0 6.7 0 3.4 0 0 Z " fill="#502C3A" transform="translate(1200,950)"/>
<path d="M0 0 C3.3 0 6.6 0 10 0 C10 3.3 10 6.6 10 10 C6.7 10 3.4 10 0 10 C0 6.7 0 3.4 0 0 Z " fill="#A48760" transform="translate(1180,950)"/>
<path d="M0 0 C3.3 0 6.6 0 10 0 C10 3.3 10 6.6 10 10 C6.7 10 3.4 10 0 10 C0 6.7 0 3.4 0 0 Z " fill="#A48860" transform="translate(1160,940)"/>
<path d="M0 0 C3.3 0 6.6 0 10 0 C10 3.3 10 6.6 10 10 C6.7 10 3.4 10 0 10 C0 6.7 0 3.4 0 0 Z " fill="#512C3A" transform="translate(670,940)"/>
<path d="M0 0 C3.3 0 6.6 0 10 0 C10 3.3 10 6.6 10 10 C6.7 10 3.4 10 0 10 C0 6.7 0 3.4 0 0 Z " fill="#704E43" transform="translate(1270,940)"/>
<path d="M0 0 C3.3 0 6.6 0 10 0 C10 3.3 10 6.6 10 10 C6.7 10 3.4 10 0 10 C0 6.7 0 3.4 0 0 Z " fill="#6F4E42" transform="translate(1240,940)"/>
<path d="M0 0 C3.3 0 6.6 0 10 0 C10 3.3 10 6.6 10 10 C6.7 10 3.4 10 0 10 C0 6.7 0 3.4 0 0 Z " fill="#704E43" transform="translate(1220,940)"/>
<path d="M0 0 C3.3 0 6.6 0 10 0 C10 3.3 10 6.6 10 10 C6.7 10 3.4 10 0 10 C0 6.7 0 3.4 0 0 Z " fill="#A48861" transform="translate(900,940)"/>
<path d="M0 0 C3.3 0 6.6 0 10 0 C10 3.3 10 6.6 10 10 C6.7 10 3.4 10 0 10 C0 6.7 0 3.4 0 0 Z " fill="#512C3A" transform="translate(1190,940)"/>
<path d="M0 0 C3.3 0 6.6 0 10 0 C10 3.3 10 6.6 10 10 C6.7 10 3.4 10 0 10 C0 6.7 0 3.4 0 0 Z " fill="#A48860" transform="translate(730,940)"/>
<path d="M0 0 C3.3 0 6.6 0 10 0 C10 3.3 10 6.6 10 10 C6.7 10 3.4 10 0 10 C0 6.7 0 3.4 0 0 Z " fill="#A48860" transform="translate(740,930)"/>
<path d="M0 0 C3.3 0 6.6 0 10 0 C10 3.3 10 6.6 10 10 C6.7 10 3.4 10 0 10 C0 6.7 0 3.4 0 0 Z " fill="#A48860" transform="translate(1150,930)"/>
<path d="M0 0 C3.3 0 6.6 0 10 0 C10 3.3 10 6.6 10 10 C6.7 10 3.4 10 0 10 C0 6.7 0 3.4 0 0 Z " fill="#A48860" transform="translate(1190,930)"/>
<path d="M0 0 C3.3 0 6.6 0 10 0 C10 3.3 10 6.6 10 10 C6.7 10 3.4 10 0 10 C0 6.7 0 3.4 0 0 Z " fill="#6F4E43" transform="translate(1210,920)"/>
<path d="M0 0 C3.3 0 6.6 0 10 0 C10 3.3 10 6.6 10 10 C6.7 10 3.4 10 0 10 C0 6.7 0 3.4 0 0 Z " fill="#A48860" transform="translate(1170,920)"/>
<path d="M0 0 C3.3 0 6.6 0 10 0 C10 3.3 10 6.6 10 10 C6.7 10 3.4 10 0 10 C0 6.7 0 3.4 0 0 Z " fill="#502C3A" transform="translate(1160,920)"/>
<path d="M0 0 C3.3 0 6.6 0 10 0 C10 3.3 10 6.6 10 10 C6.7 10 3.4 10 0 10 C0 6.7 0 3.4 0 0 Z " fill="#A48860" transform="translate(1140,910)"/>
<path d="M0 0 C3.3 0 6.6 0 10 0 C10 3.3 10 6.6 10 10 C6.7 10 3.4 10 0 10 C0 6.7 0 3.4 0 0 Z " fill="#A4885F" transform="translate(1120,910)"/>
<path d="M0 0 C3.3 0 6.6 0 10 0 C10 3.3 10 6.6 10 10 C6.7 10 3.4 10 0 10 C0 6.7 0 3.4 0 0 Z " fill="#A48860" transform="translate(950,910)"/>
<path d="M0 0 C3.3 0 6.6 0 10 0 C10 3.3 10 6.6 10 10 C6.7 10 3.4 10 0 10 C0 6.7 0 3.4 0 0 Z " fill="#704E43" transform="translate(1180,900)"/>
<path d="M0 0 C3.3 0 6.6 0 10 0 C10 3.3 10 6.6 10 10 C6.7 10 3.4 10 0 10 C0 6.7 0 3.4 0 0 Z " fill="#A48861" transform="translate(780,900)"/>
<path d="M0 0 C3.3 0 6.6 0 10 0 C10 3.3 10 6.6 10 10 C6.7 10 3.4 10 0 10 C0 6.7 0 3.4 0 0 Z " fill="#A48860" transform="translate(1110,900)"/>
<path d="M0 0 C3.3 0 6.6 0 10 0 C10 3.3 10 6.6 10 10 C6.7 10 3.4 10 0 10 C0 6.7 0 3.4 0 0 Z " fill="#6F4E43" transform="translate(1140,890)"/>
<path d="M0 0 C3.3 0 6.6 0 10 0 C10 3.3 10 6.6 10 10 C6.7 10 3.4 10 0 10 C0 6.7 0 3.4 0 0 Z " fill="#29172C" transform="translate(1160,890)"/>
<path d="M0 0 C3.3 0 6.6 0 10 0 C10 3.3 10 6.6 10 10 C6.7 10 3.4 10 0 10 C0 6.7 0 3.4 0 0 Z " fill="#A48861" transform="translate(1090,890)"/>
<path d="M0 0 C3.3 0 6.6 0 10 0 C10 3.3 10 6.6 10 10 C6.7 10 3.4 10 0 10 C0 6.7 0 3.4 0 0 Z " fill="#29172C" transform="translate(1130,890)"/>
<path d="M0 0 C3.3 0 6.6 0 10 0 C10 3.3 10 6.6 10 10 C6.7 10 3.4 10 0 10 C0 6.7 0 3.4 0 0 Z " fill="#A3885F" transform="translate(1120,890)"/>
<path d="M0 0 C3.3 0 6.6 0 10 0 C10 3.3 10 6.6 10 10 C6.7 10 3.4 10 0 10 C0 6.7 0 3.4 0 0 Z " fill="#29172C" transform="translate(1200,880)"/>
<path d="M0 0 C3.3 0 6.6 0 10 0 C10 3.3 10 6.6 10 10 C6.7 10 3.4 10 0 10 C0 6.7 0 3.4 0 0 Z " fill="#29172C" transform="translate(1170,880)"/>
<path d="M0 0 C3.3 0 6.6 0 10 0 C10 3.3 10 6.6 10 10 C6.7 10 3.4 10 0 10 C0 6.7 0 3.4 0 0 Z " fill="#29172C" transform="translate(1140,880)"/>
<path d="M0 0 C3.3 0 6.6 0 10 0 C10 3.3 10 6.6 10 10 C6.7 10 3.4 10 0 10 C0 6.7 0 3.4 0 0 Z " fill="#29162B" transform="translate(1120,880)"/>
<path d="M0 0 C3.3 0 6.6 0 10 0 C10 3.3 10 6.6 10 10 C6.7 10 3.4 10 0 10 C0 6.7 0 3.4 0 0 Z " fill="#A3885F" transform="translate(1080,880)"/>
<path d="M0 0 C3.3 0 6.6 0 10 0 C10 3.3 10 6.6 10 10 C6.7 10 3.4 10 0 10 C0 6.7 0 3.4 0 0 Z " fill="#29172D" transform="translate(1100,870)"/>
<path d="M0 0 C3.3 0 6.6 0 10 0 C10 3.3 10 6.6 10 10 C6.7 10 3.4 10 0 10 C0 6.7 0 3.4 0 0 Z " fill="#6F4E43" transform="translate(1090,870)"/>
<path d="M0 0 C3.3 0 6.6 0 10 0 C10 3.3 10 6.6 10 10 C6.7 10 3.4 10 0 10 C0 6.7 0 3.4 0 0 Z " fill="#29172C" transform="translate(1210,860)"/>
<path d="M0 0 C3.3 0 6.6 0 10 0 C10 3.3 10 6.6 10 10 C6.7 10 3.4 10 0 10 C0 6.7 0 3.4 0 0 Z " fill="#29172C" transform="translate(1130,860)"/>
<path d="M0 0 C3.3 0 6.6 0 10 0 C10 3.3 10 6.6 10 10 C6.7 10 3.4 10 0 10 C0 6.7 0 3.4 0 0 Z " fill="#A38860" transform="translate(1060,860)"/>
<path d="M0 0 C3.3 0 6.6 0 10 0 C10 3.3 10 6.6 10 10 C6.7 10 3.4 10 0 10 C0 6.7 0 3.4 0 0 Z " fill="#29172C" transform="translate(1190,860)"/>
<path d="M0 0 C3.3 0 6.6 0 10 0 C10 3.3 10 6.6 10 10 C6.7 10 3.4 10 0 10 C0 6.7 0 3.4 0 0 Z " fill="#29172C" transform="translate(1110,860)"/>
<path d="M0 0 C3.3 0 6.6 0 10 0 C10 3.3 10 6.6 10 10 C6.7 10 3.4 10 0 10 C0 6.7 0 3.4 0 0 Z " fill="#29172C" transform="translate(1260,850)"/>
<path d="M0 0 C3.3 0 6.6 0 10 0 C10 3.3 10 6.6 10 10 C6.7 10 3.4 10 0 10 C0 6.7 0 3.4 0 0 Z " fill="#29172C" transform="translate(1230,850)"/>
<path d="M0 0 C3.3 0 6.6 0 10 0 C10 3.3 10 6.6 10 10 C6.7 10 3.4 10 0 10 C0 6.7 0 3.4 0 0 Z " fill="#29172C" transform="translate(1170,850)"/>
<path d="M0 0 C3.3 0 6.6 0 10 0 C10 3.3 10 6.6 10 10 C6.7 10 3.4 10 0 10 C0 6.7 0 3.4 0 0 Z " fill="#502C3B" transform="translate(1080,850)"/>
<path d="M0 0 C3.3 0 6.6 0 10 0 C10 3.3 10 6.6 10 10 C6.7 10 3.4 10 0 10 C0 6.7 0 3.4 0 0 Z " fill="#29172C" transform="translate(1210,840)"/>
<path d="M0 0 C3.3 0 6.6 0 10 0 C10 3.3 10 6.6 10 10 C6.7 10 3.4 10 0 10 C0 6.7 0 3.4 0 0 Z " fill="#29172C" transform="translate(1200,830)"/>
<path d="M0 0 C3.3 0 6.6 0 10 0 C10 3.3 10 6.6 10 10 C6.7 10 3.4 10 0 10 C0 6.7 0 3.4 0 0 Z " fill="#512C3A" transform="translate(690,830)"/>
<path d="M0 0 C3.3 0 6.6 0 10 0 C10 3.3 10 6.6 10 10 C6.7 10 3.4 10 0 10 C0 6.7 0 3.4 0 0 Z " fill="#512C3A" transform="translate(340,830)"/>
<path d="M0 0 C3.3 0 6.6 0 10 0 C10 3.3 10 6.6 10 10 C6.7 10 3.4 10 0 10 C0 6.7 0 3.4 0 0 Z " fill="#29162C" transform="translate(1250,820)"/>
<path d="M0 0 C3.3 0 6.6 0 10 0 C10 3.3 10 6.6 10 10 C6.7 10 3.4 10 0 10 C0 6.7 0 3.4 0 0 Z " fill="#A4885F" transform="translate(760,820)"/>
<path d="M0 0 C3.3 0 6.6 0 10 0 C10 3.3 10 6.6 10 10 C6.7 10 3.4 10 0 10 C0 6.7 0 3.4 0 0 Z " fill="#512C39" transform="translate(420,820)"/>
<path d="M0 0 C3.3 0 6.6 0 10 0 C10 3.3 10 6.6 10 10 C6.7 10 3.4 10 0 10 C0 6.7 0 3.4 0 0 Z " fill="#A48861" transform="translate(940,810)"/>
<path d="M0 0 C3.3 0 6.6 0 10 0 C10 3.3 10 6.6 10 10 C6.7 10 3.4 10 0 10 C0 6.7 0 3.4 0 0 Z " fill="#29172C" transform="translate(1260,810)"/>
<path d="M0 0 C3.3 0 6.6 0 10 0 C10 3.3 10 6.6 10 10 C6.7 10 3.4 10 0 10 C0 6.7 0 3.4 0 0 Z " fill="#29172C" transform="translate(1240,810)"/>
<path d="M0 0 C3.3 0 6.6 0 10 0 C10 3.3 10 6.6 10 10 C6.7 10 3.4 10 0 10 C0 6.7 0 3.4 0 0 Z " fill="#29162C" transform="translate(1270,790)"/>
<path d="M0 0 C3.3 0 6.6 0 10 0 C10 3.3 10 6.6 10 10 C6.7 10 3.4 10 0 10 C0 6.7 0 3.4 0 0 Z " fill="#512C3A" transform="translate(510,790)"/>
<path d="M0 0 C3.3 0 6.6 0 10 0 C10 3.3 10 6.6 10 10 C6.7 10 3.4 10 0 10 C0 6.7 0 3.4 0 0 Z " fill="#A48861" transform="translate(900,770)"/>
<path d="M0 0 C3.3 0 6.6 0 10 0 C10 3.3 10 6.6 10 10 C6.7 10 3.4 10 0 10 C0 6.7 0 3.4 0 0 Z " fill="#512C39" transform="translate(380,770)"/>
<path d="M0 0 C3.3 0 6.6 0 10 0 C10 3.3 10 6.6 10 10 C6.7 10 3.4 10 0 10 C0 6.7 0 3.4 0 0 Z " fill="#512C3A" transform="translate(660,760)"/>
<path d="M0 0 C3.3 0 6.6 0 10 0 C10 3.3 10 6.6 10 10 C6.7 10 3.4 10 0 10 C0 6.7 0 3.4 0 0 Z " fill="#512C3A" transform="translate(460,760)"/>
<path d="M0 0 C3.3 0 6.6 0 10 0 C10 3.3 10 6.6 10 10 C6.7 10 3.4 10 0 10 C0 6.7 0 3.4 0 0 Z " fill="#512C3A" transform="translate(1160,740)"/>
<path d="M0 0 C3.3 0 6.6 0 10 0 C10 3.3 10 6.6 10 10 C6.7 10 3.4 10 0 10 C0 6.7 0 3.4 0 0 Z " fill="#502C39" transform="translate(1240,720)"/>
<path d="M0 0 C3.3 0 6.6 0 10 0 C10 3.3 10 6.6 10 10 C6.7 10 3.4 10 0 10 C0 6.7 0 3.4 0 0 Z " fill="#A3875F" transform="translate(920,720)"/>
<path d="M0 0 C3.3 0 6.6 0 10 0 C10 3.3 10 6.6 10 10 C6.7 10 3.4 10 0 10 C0 6.7 0 3.4 0 0 Z " fill="#A48860" transform="translate(770,720)"/>
<path d="M0 0 C3.3 0 6.6 0 10 0 C10 3.3 10 6.6 10 10 C6.7 10 3.4 10 0 10 C0 6.7 0 3.4 0 0 Z " fill="#A3875F" transform="translate(720,720)"/>
<path d="M0 0 C3.3 0 6.6 0 10 0 C10 3.3 10 6.6 10 10 C6.7 10 3.4 10 0 10 C0 6.7 0 3.4 0 0 Z " fill="#512C39" transform="translate(340,700)"/>
<path d="M0 0 C3.3 0 6.6 0 10 0 C10 3.3 10 6.6 10 10 C6.7 10 3.4 10 0 10 C0 6.7 0 3.4 0 0 Z " fill="#512C3A" transform="translate(520,690)"/>
<path d="M0 0 C3.3 0 6.6 0 10 0 C10 3.3 10 6.6 10 10 C6.7 10 3.4 10 0 10 C0 6.7 0 3.4 0 0 Z " fill="#A48861" transform="translate(1130,690)"/>
<path d="M0 0 C3.3 0 6.6 0 10 0 C10 3.3 10 6.6 10 10 C6.7 10 3.4 10 0 10 C0 6.7 0 3.4 0 0 Z " fill="#502C39" transform="translate(1200,680)"/>
<path d="M0 0 C3.3 0 6.6 0 10 0 C10 3.3 10 6.6 10 10 C6.7 10 3.4 10 0 10 C0 6.7 0 3.4 0 0 Z " fill="#A48760" transform="translate(980,680)"/>
<path d="M0 0 C3.3 0 6.6 0 10 0 C10 3.3 10 6.6 10 10 C6.7 10 3.4 10 0 10 C0 6.7 0 3.4 0 0 Z " fill="#A48860" transform="translate(90,670)"/>
<path d="M0 0 C3.3 0 6.6 0 10 0 C10 3.3 10 6.6 10 10 C6.7 10 3.4 10 0 10 C0 6.7 0 3.4 0 0 Z " fill="#A48860" transform="translate(670,660)"/>
<path d="M0 0 C3.3 0 6.6 0 10 0 C10 3.3 10 6.6 10 10 C6.7 10 3.4 10 0 10 C0 6.7 0 3.4 0 0 Z " fill="#A3875F" transform="translate(1160,640)"/>
<path d="M0 0 C3.3 0 6.6 0 10 0 C10 3.3 10 6.6 10 10 C6.7 10 3.4 10 0 10 C0 6.7 0 3.4 0 0 Z " fill="#512C3A" transform="translate(730,640)"/>
<path d="M0 0 C3.3 0 6.6 0 10 0 C10 3.3 10 6.6 10 10 C6.7 10 3.4 10 0 10 C0 6.7 0 3.4 0 0 Z " fill="#512C3A" transform="translate(460,640)"/>
<path d="M0 0 C3.3 0 6.6 0 10 0 C10 3.3 10 6.6 10 10 C6.7 10 3.4 10 0 10 C0 6.7 0 3.4 0 0 Z " fill="#A48860" transform="translate(1090,630)"/>
<path d="M0 0 C3.3 0 6.6 0 10 0 C10 3.3 10 6.6 10 10 C6.7 10 3.4 10 0 10 C0 6.7 0 3.4 0 0 Z " fill="#A4885F" transform="translate(1000,630)"/>
<path d="M0 0 C3.3 0 6.6 0 10 0 C10 3.3 10 6.6 10 10 C6.7 10 3.4 10 0 10 C0 6.7 0 3.4 0 0 Z " fill="#A4885F" transform="translate(920,630)"/>
<path d="M0 0 C3.3 0 6.6 0 10 0 C10 3.3 10 6.6 10 10 C6.7 10 3.4 10 0 10 C0 6.7 0 3.4 0 0 Z " fill="#512C39" transform="translate(1220,620)"/>
<path d="M0 0 C3.3 0 6.6 0 10 0 C10 3.3 10 6.6 10 10 C6.7 10 3.4 10 0 10 C0 6.7 0 3.4 0 0 Z " fill="#512C3A" transform="translate(470,550)"/>
<path d="M0 0 C3.3 0 6.6 0 10 0 C10 3.3 10 6.6 10 10 C6.7 10 3.4 10 0 10 C0 6.7 0 3.4 0 0 Z " fill="#A48860" transform="translate(150,550)"/>
<path d="M0 0 C3.3 0 6.6 0 10 0 C10 3.3 10 6.6 10 10 C6.7 10 3.4 10 0 10 C0 6.7 0 3.4 0 0 Z " fill="#A4885F" transform="translate(80,510)"/>
<path d="M0 0 C3.3 0 6.6 0 10 0 C10 3.3 10 6.6 10 10 C6.7 10 3.4 10 0 10 C0 6.7 0 3.4 0 0 Z " fill="#512C39" transform="translate(1170,500)"/>
<path d="M0 0 C3.3 0 6.6 0 10 0 C10 3.3 10 6.6 10 10 C6.7 10 3.4 10 0 10 C0 6.7 0 3.4 0 0 Z " fill="#512C3A" transform="translate(880,490)"/>
<path d="M0 0 C3.3 0 6.6 0 10 0 C10 3.3 10 6.6 10 10 C6.7 10 3.4 10 0 10 C0 6.7 0 3.4 0 0 Z " fill="#512C39" transform="translate(1090,490)"/>
<path d="M0 0 C3.3 0 6.6 0 10 0 C10 3.3 10 6.6 10 10 C6.7 10 3.4 10 0 10 C0 6.7 0 3.4 0 0 Z " fill="#512C39" transform="translate(690,490)"/>
<path d="M0 0 C3.3 0 6.6 0 10 0 C10 3.3 10 6.6 10 10 C6.7 10 3.4 10 0 10 C0 6.7 0 3.4 0 0 Z " fill="#512C3A" transform="translate(510,470)"/>
<path d="M0 0 C3.3 0 6.6 0 10 0 C10 3.3 10 6.6 10 10 C6.7 10 3.4 10 0 10 C0 6.7 0 3.4 0 0 Z " fill="#512C39" transform="translate(1210,460)"/>
<path d="M0 0 C3.3 0 6.6 0 10 0 C10 3.3 10 6.6 10 10 C6.7 10 3.4 10 0 10 C0 6.7 0 3.4 0 0 Z " fill="#512C39" transform="translate(780,460)"/>
<path d="M0 0 C3.3 0 6.6 0 10 0 C10 3.3 10 6.6 10 10 C6.7 10 3.4 10 0 10 C0 6.7 0 3.4 0 0 Z " fill="#512C3A" transform="translate(930,440)"/>
<path d="M0 0 C3.3 0 6.6 0 10 0 C10 3.3 10 6.6 10 10 C6.7 10 3.4 10 0 10 C0 6.7 0 3.4 0 0 Z " fill="#A4885F" transform="translate(80,430)"/>
<path d="M0 0 C3.3 0 6.6 0 10 0 C10 3.3 10 6.6 10 10 C6.7 10 3.4 10 0 10 C0 6.7 0 3.4 0 0 Z " fill="#A48861" transform="translate(660,410)"/>
<path d="M0 0 C3.3 0 6.6 0 10 0 C10 3.3 10 6.6 10 10 C6.7 10 3.4 10 0 10 C0 6.7 0 3.4 0 0 Z " fill="#A48760" transform="translate(140,400)"/>
<path d="M0 0 C3.3 0 6.6 0 10 0 C10 3.3 10 6.6 10 10 C6.7 10 3.4 10 0 10 C0 6.7 0 3.4 0 0 Z " fill="#512C3A" transform="translate(1220,390)"/>
<path d="M0 0 C3.3 0 6.6 0 10 0 C10 3.3 10 6.6 10 10 C6.7 10 3.4 10 0 10 C0 6.7 0 3.4 0 0 Z " fill="#A48861" transform="translate(970,380)"/>
<path d="M0 0 C3.3 0 6.6 0 10 0 C10 3.3 10 6.6 10 10 C6.7 10 3.4 10 0 10 C0 6.7 0 3.4 0 0 Z " fill="#A48861" transform="translate(220,380)"/>
<path d="M0 0 C3.3 0 6.6 0 10 0 C10 3.3 10 6.6 10 10 C6.7 10 3.4 10 0 10 C0 6.7 0 3.4 0 0 Z " fill="#A48861" transform="translate(90,370)"/>
<path d="M0 0 C3.3 0 6.6 0 10 0 C10 3.3 10 6.6 10 10 C6.7 10 3.4 10 0 10 C0 6.7 0 3.4 0 0 Z " fill="#512C3A" transform="translate(1190,350)"/>
<path d="M0 0 C3.3 0 6.6 0 10 0 C10 3.3 10 6.6 10 10 C6.7 10 3.4 10 0 10 C0 6.7 0 3.4 0 0 Z " fill="#A48860" transform="translate(1090,350)"/>
<path d="M0 0 C3.3 0 6.6 0 10 0 C10 3.3 10 6.6 10 10 C6.7 10 3.4 10 0 10 C0 6.7 0 3.4 0 0 Z " fill="#A48860" transform="translate(690,350)"/>
<path d="M0 0 C3.3 0 6.6 0 10 0 C10 3.3 10 6.6 10 10 C6.7 10 3.4 10 0 10 C0 6.7 0 3.4 0 0 Z " fill="#A48860" transform="translate(790,350)"/>
<path d="M0 0 C3.3 0 6.6 0 10 0 C10 3.3 10 6.6 10 10 C6.7 10 3.4 10 0 10 C0 6.7 0 3.4 0 0 Z " fill="#512C3A" transform="translate(1230,220)"/>
<path d="M0 0 C3.3 0 6.6 0 10 0 C10 3.3 10 6.6 10 10 C6.7 10 3.4 10 0 10 C0 6.7 0 3.4 0 0 Z " fill="#512C3A" transform="translate(470,210)"/>
<path d="M0 0 C3.3 0 6.6 0 10 0 C10 3.3 10 6.6 10 10 C6.7 10 3.4 10 0 10 C0 6.7 0 3.4 0 0 Z " fill="#A48861" transform="translate(1010,210)"/>
<path d="M0 0 C3.3 0 6.6 0 10 0 C10 3.3 10 6.6 10 10 C6.7 10 3.4 10 0 10 C0 6.7 0 3.4 0 0 Z " fill="#512C39" transform="translate(570,210)"/>
<path d="M0 0 C3.3 0 6.6 0 10 0 C10 3.3 10 6.6 10 10 C6.7 10 3.4 10 0 10 C0 6.7 0 3.4 0 0 Z " fill="#512C39" transform="translate(300,210)"/>
<path d="M0 0 C3.3 0 6.6 0 10 0 C10 3.3 10 6.6 10 10 C6.7 10 3.4 10 0 10 C0 6.7 0 3.4 0 0 Z " fill="#512C39" transform="translate(180,210)"/>
<path d="M0 0 C3.3 0 6.6 0 10 0 C10 3.3 10 6.6 10 10 C6.7 10 3.4 10 0 10 C0 6.7 0 3.4 0 0 Z " fill="#512C3A" transform="translate(860,200)"/>
<path d="M0 0 C3.3 0 6.6 0 10 0 C10 3.3 10 6.6 10 10 C6.7 10 3.4 10 0 10 C0 6.7 0 3.4 0 0 Z " fill="#502C39" transform="translate(800,200)"/>
<path d="M0 0 C3.3 0 6.6 0 10 0 C10 3.3 10 6.6 10 10 C6.7 10 3.4 10 0 10 C0 6.7 0 3.4 0 0 Z " fill="#512C3A" transform="translate(730,200)"/>
<path d="M0 0 C3.3 0 6.6 0 10 0 C10 3.3 10 6.6 10 10 C6.7 10 3.4 10 0 10 C0 6.7 0 3.4 0 0 Z " fill="#512C3A" transform="translate(1100,190)"/>
<path d="M0 0 C3.3 0 6.6 0 10 0 C10 3.3 10 6.6 10 10 C6.7 10 3.4 10 0 10 C0 6.7 0 3.4 0 0 Z " fill="#A48860" transform="translate(160,180)"/>
<path d="M0 0 C3.3 0 6.6 0 10 0 C10 3.3 10 6.6 10 10 C6.7 10 3.4 10 0 10 C0 6.7 0 3.4 0 0 Z " fill="#512C39" transform="translate(50,180)"/>
<path d="M0 0 C3.3 0 6.6 0 10 0 C10 3.3 10 6.6 10 10 C6.7 10 3.4 10 0 10 C0 6.7 0 3.4 0 0 Z " fill="#512C39" transform="translate(380,170)"/>
<path d="M0 0 C3.3 0 6.6 0 10 0 C10 3.3 10 6.6 10 10 C6.7 10 3.4 10 0 10 C0 6.7 0 3.4 0 0 Z " fill="#502C39" transform="translate(1240,160)"/>
<path d="M0 0 C3.3 0 6.6 0 10 0 C10 3.3 10 6.6 10 10 C6.7 10 3.4 10 0 10 C0 6.7 0 3.4 0 0 Z " fill="#502C39" transform="translate(640,160)"/>
<path d="M0 0 C3.3 0 6.6 0 10 0 C10 3.3 10 6.6 10 10 C6.7 10 3.4 10 0 10 C0 6.7 0 3.4 0 0 Z " fill="#A48860" transform="translate(250,160)"/>
<path d="M0 0 C3.3 0 6.6 0 10 0 C10 3.3 10 6.6 10 10 C6.7 10 3.4 10 0 10 C0 6.7 0 3.4 0 0 Z " fill="#512C3A" transform="translate(870,140)"/>
<path d="M0 0 C3.3 0 6.6 0 10 0 C10 3.3 10 6.6 10 10 C6.7 10 3.4 10 0 10 C0 6.7 0 3.4 0 0 Z " fill="#A48861" transform="translate(460,130)"/>
<path d="M0 0 C3.3 0 6.6 0 10 0 C10 3.3 10 6.6 10 10 C6.7 10 3.4 10 0 10 C0 6.7 0 3.4 0 0 Z " fill="#A48860" transform="translate(40,130)"/>
<path d="M0 0 C3.3 0 6.6 0 10 0 C10 3.3 10 6.6 10 10 C6.7 10 3.4 10 0 10 C0 6.7 0 3.4 0 0 Z " fill="#512C3A" transform="translate(740,120)"/>
<path d="M0 0 C3.3 0 6.6 0 10 0 C10 3.3 10 6.6 10 10 C6.7 10 3.4 10 0 10 C0 6.7 0 3.4 0 0 Z " fill="#A48860" transform="translate(1010,110)"/>
<path d="M0 0 C3.3 0 6.6 0 10 0 C10 3.3 10 6.6 10 10 C6.7 10 3.4 10 0 10 C0 6.7 0 3.4 0 0 Z " fill="#A48861" transform="translate(570,100)"/>
<path d="M0 0 C3.3 0 6.6 0 10 0 C10 3.3 10 6.6 10 10 C6.7 10 3.4 10 0 10 C0 6.7 0 3.4 0 0 Z " fill="#A48861" transform="translate(370,100)"/>
<path d="M0 0 C3.3 0 6.6 0 10 0 C10 3.3 10 6.6 10 10 C6.7 10 3.4 10 0 10 C0 6.7 0 3.4 0 0 Z " fill="#A48861" transform="translate(250,100)"/>
<path d="M0 0 C3.3 0 6.6 0 10 0 C10 3.3 10 6.6 10 10 C6.7 10 3.4 10 0 10 C0 6.7 0 3.4 0 0 Z " fill="#A48860" transform="translate(1070,90)"/>
<path d="M0 0 C3.3 0 6.6 0 10 0 C10 3.3 10 6.6 10 10 C6.7 10 3.4 10 0 10 C0 6.7 0 3.4 0 0 Z " fill="#A48760" transform="translate(1190,80)"/>
<path d="M0 0 C3.3 0 6.6 0 10 0 C10 3.3 10 6.6 10 10 C6.7 10 3.4 10 0 10 C0 6.7 0 3.4 0 0 Z " fill="#512C3A" transform="translate(870,80)"/>
<path d="M0 0 C3.3 0 6.6 0 10 0 C10 3.3 10 6.6 10 10 C6.7 10 3.4 10 0 10 C0 6.7 0 3.4 0 0 Z " fill="#A3875F" transform="translate(680,80)"/>
<path d="M0 0 C3.3 0 6.6 0 10 0 C10 3.3 10 6.6 10 10 C6.7 10 3.4 10 0 10 C0 6.7 0 3.4 0 0 Z " fill="#A48760" transform="translate(500,80)"/>
<path d="M0 0 C3.3 0 6.6 0 10 0 C10 3.3 10 6.6 10 10 C6.7 10 3.4 10 0 10 C0 6.7 0 3.4 0 0 Z " fill="#A48760" transform="translate(300,70)"/>
<path d="M0 0 C3.3 0 6.6 0 10 0 C10 3.3 10 6.6 10 10 C6.7 10 3.4 10 0 10 C0 6.7 0 3.4 0 0 Z " fill="#A48760" transform="translate(180,70)"/>
</svg>
